<svg xmlns="http://www.w3.org/2000/svg" xmlns:xlink="http://www.w3.org/1999/xlink" viewBox="0 0 104.15 99.02"><defs><style>.cls-1,.cls-3{fill:none;}.cls-1{stroke:#f1f1f1;stroke-width:4px;}.cls-1,.cls-2,.cls-3{stroke-miterlimit:10;}.cls-2{fill:#f1f1f1;stroke:#94d920;stroke-width:2px;opacity:0.95;}.cls-3{stroke:#018c00;stroke-width:12px;}.cls-4{fill:url(#Degradado_sin_nombre_7);}.cls-5{fill:url(#Degradado_sin_nombre_4);}.cls-6{fill:url(#Degradado_sin_nombre_4-2);}.cls-7{fill:url(#Degradado_sin_nombre_4-3);}</style><linearGradient id="Degradado_sin_nombre_7" x1="55.15" y1="1211.66" x2="55.15" y2="1204.09" gradientTransform="matrix(0.98, 0.21, -0.21, 0.98, 258.11, -1128.91)" gradientUnits="userSpaceOnUse"><stop offset="0.03" stop-color="#107238"/><stop offset="0.98" stop-color="#81be3e"/></linearGradient><linearGradient id="Degradado_sin_nombre_4" x1="43.19" y1="74.94" x2="55.23" y2="62.9" gradientUnits="userSpaceOnUse"><stop offset="0.09" stop-color="#8bc53f"/><stop offset="0.94" stop-color="#006837"/></linearGradient><linearGradient id="Degradado_sin_nombre_4-2" x1="30.15" y1="66.84" x2="70.76" y2="66.84" xlink:href="#Degradado_sin_nombre_4"/><linearGradient id="Degradado_sin_nombre_4-3" x1="34.84" y1="57.6" x2="43.43" y2="57.6" xlink:href="#Degradado_sin_nombre_4"/></defs><title>buttonTemperatura</title><g id="Capa_2" data-name="Capa 2"><g id="Máquinas-SERVIDORES"><ellipse class="cls-1" cx="52.07" cy="47.57" rx="46.2" ry="45.57"/><ellipse class="cls-2" cx="52.07" cy="47.57" rx="39.65" ry="39.11"/><path class="cls-3" d="M98.15,47.57C98.15,72.67,77.52,93,52.07,93S6,72.67,6,47.57"/><path class="cls-4" d="M58.34,67.46c-2.83-.29-2.84-2.41-2.76-3.15a12,12,0,0,1,2.07.41c.18.85,1.58,1.7,1.58,1.7A4,4,0,0,1,58,64.81a9.57,9.57,0,0,0,1.76.45,2.43,2.43,0,0,0,1.44.84,3.16,3.16,0,0,1-1-.81,4.55,4.55,0,0,0,2.42-.6,9.44,9.44,0,0,1-2.42.27,3.39,3.39,0,0,1,1.16-.7,2.54,2.54,0,0,0-1.61.67,9.44,9.44,0,0,1-1.68-.48,4.54,4.54,0,0,1,1.8-1.16s-1.71.29-2.16,1.06a8.9,8.9,0,0,0-2.11-.43c.14-2.35,3.32-2.4,4.67-1.56S62,63.8,64.67,63.7A6.75,6.75,0,0,1,58.34,67.46Zm-4.55-6.81A4.72,4.72,0,0,1,53.62,63h.05c2.93-.9.07-4.23.07-4.23a9.54,9.54,0,0,1-1.14,1.81c-.79.95-.71,2.77.82,2.48A5.67,5.67,0,0,0,53.79,60.65Zm1.79,3.66s.06-.4.07-.4a4.21,4.21,0,0,0-2.74.41A4.49,4.49,0,0,0,53.62,63l-.2,0a5.85,5.85,0,0,1-1,1.49A13.8,13.8,0,0,0,51,65.59a.34.34,0,0,0,.48.31A5.06,5.06,0,0,1,55.58,64.31Z"/><path class="cls-5" d="M53.43,75.16a4.23,4.23,0,0,1-8.45,0,3.92,3.92,0,0,1,2.09-3.42V59.81a2.14,2.14,0,0,1,4.28,0V71.74A3.91,3.91,0,0,1,53.43,75.16Zm-.83,0a3.16,3.16,0,0,0-1.86-2.84l-.23-.11V59.81a1.31,1.31,0,0,0-2.61,0v12.4l-.22.11a3.16,3.16,0,0,0-1.86,2.84,3.4,3.4,0,0,0,6.78,0Zm-.7,0a2.7,2.7,0,0,1-5.39,0,2.57,2.57,0,0,1,2-2.44l.16,0V65.74h1.08v6.94l.15,0A2.56,2.56,0,0,1,51.9,75.16Zm-2.56-1.69a.54.54,0,0,0-.64-.38,2.13,2.13,0,0,0-1.74,2,.53.53,0,0,0,.54.51.53.53,0,0,0,.54-.51,1.1,1.1,0,0,1,.9-1A.51.51,0,0,0,49.34,73.47Z"/><path class="cls-6" d="M70.7,59.68c-.6-6.13-5.21-10.58-11-10.58a11.09,11.09,0,0,0-9.37,5.07,10.62,10.62,0,0,0-9.13-5.07c-5.78,0-10.4,4.45-11,10.58a10.23,10.23,0,0,0,.34,4,17.16,17.16,0,0,0,5.63,8.82L50.34,84.58,64.73,72.52a17.14,17.14,0,0,0,5.62-8.82A10.58,10.58,0,0,0,70.7,59.68Zm-1.87,3.68a15.6,15.6,0,0,1-5.15,8.07L50.34,82.61,37.24,71.43a15.64,15.64,0,0,1-5.16-8.07,9,9,0,0,1-.32-3.45v-.07c.51-5.38,4.48-9.28,9.44-9.28a9.16,9.16,0,0,1,8.41,5.52l.72,1.6.72-1.6a9.46,9.46,0,0,1,8.65-5.51c5,0,8.93,3.9,9.44,9.34A8.74,8.74,0,0,1,68.83,63.36Z"/><path class="cls-7" d="M42.65,53.56a7.59,7.59,0,0,0-7.81,7.34.78.78,0,0,0,1.56,0A6.07,6.07,0,0,1,42.65,55a.74.74,0,1,0,0-1.47Z"/></g></g></svg>