<svg xmlns="http://www.w3.org/2000/svg" xmlns:xlink="http://www.w3.org/1999/xlink" viewBox="0 0 147.26 149.28"><defs><style>.cls-1{fill:url(#Degradado_sin_nombre_91);}.cls-2{fill:url(#Degradado_sin_nombre_91-2);}</style><linearGradient id="Degradado_sin_nombre_91" y1="32.31" x2="94.94" y2="32.31" gradientUnits="userSpaceOnUse"><stop offset="0.05" stop-color="#39cb4a"/><stop offset="1" stop-color="#9cdf21"/></linearGradient><linearGradient id="Degradado_sin_nombre_91-2" x1="28.7" y1="90.08" x2="147.26" y2="90.08" xlink:href="#Degradado_sin_nombre_91"/></defs><title>iconMedioAmbienteCOLOR</title><g id="Capa_2" data-name="Capa 2"><g id="MEDIOAMBIENTE"><path class="cls-1" d="M8.77,32.66C14.2,45.29,23.37,57.78,36.2,63.17A29.34,29.34,0,0,0,41,64.62,50,50,0,0,1,53,52a59.73,59.73,0,0,1,12.34-7,33.9,33.9,0,0,0-3.84-2.34c-5.34-2.79-11.12-5.24-16.75-7.88,5.29,1.43,11.36,2,16.43,3.81a37.9,37.9,0,0,1,8.78,4.67c8.1-2.76,16.57-4.09,25-5.1C88.09,26.83,73.48,17.7,62.47,13.56,51,9.25,37.94,8.71,25.14,7.39A63.63,63.63,0,0,1,2.53.23,1.71,1.71,0,0,0,.09,2.32C3.16,12.13,4.72,23.23,8.77,32.66Z"/><path class="cls-2" d="M144,31.17C129.57,39,113,40,96.8,41.83a131.7,131.7,0,0,0-23.21,4.3c-1.62.49-3.24,1-4.82,1.65A56.69,56.69,0,0,0,55.22,55.1a46,46,0,0,0-10.1,10.33c-4.42,6.16-7.5,13.25-10,20.62a117.24,117.24,0,0,0-6.33,41.73c.16,5.74.25,11.7,1.67,17.3.32,1.24.63,2.81,1.59,3.72A1.82,1.82,0,0,0,35,147c-3.63-12.37-1.37-26.83,3.64-38.66,5.77-13.59,16.91-21.67,30.51-26.6,3.62-1.31,7.31-2.45,11.06-3.54a.61.61,0,0,1,.23,0,.76.76,0,0,1,.29,1.45c-4.42,2-8.82,4-13,6.2C47.27,96.51,38.33,121.38,46,121.38a5.83,5.83,0,0,0,2.19-.52c11.84-4.9,25.9-4.94,38.92-7.35a64.51,64.51,0,0,0,13.2-3.73c16.6-6.92,28.47-20.47,35.53-36.76,5.26-12.15,7.31-26.51,11.29-39.14a2.22,2.22,0,0,0-2-3A2,2,0,0,0,144,31.17Z"/></g></g></svg>