<svg xmlns="http://www.w3.org/2000/svg" viewBox="0 0 31 24.67"><defs><style>.cls-1{fill:#fff;}</style></defs><title>iconHome</title><g id="Capa_2" data-name="Capa 2"><g id="MEDIOAMBIENTE"><path class="cls-1" d="M15.5,5,4.44,14.09a.13.13,0,0,1,0,.06.35.35,0,0,1,0,.06v9.23a1.19,1.19,0,0,0,.37.86,1.16,1.16,0,0,0,.87.37H13V17.29H18v7.38h7.39a1.15,1.15,0,0,0,.86-.37,1.19,1.19,0,0,0,.37-.86V14.21a.37.37,0,0,0,0-.12Z"/><path class="cls-1" d="M30.79,12l-4.21-3.5V.67A.59.59,0,0,0,26.4.23.6.6,0,0,0,26,.06H22.27a.6.6,0,0,0-.44.17.59.59,0,0,0-.18.44V4.42L17,.5A2.38,2.38,0,0,0,14,.5L.21,12a.61.61,0,0,0-.21.41.6.6,0,0,0,.14.45l1.19,1.43a.71.71,0,0,0,.4.21.68.68,0,0,0,.46-.14L15.5,3.29,28.81,14.38a.57.57,0,0,0,.4.14h.06a.71.71,0,0,0,.4-.21l1.19-1.43a.61.61,0,0,0,.14-.45A.57.57,0,0,0,30.79,12Z"/></g></g></svg>