<svg xmlns="http://www.w3.org/2000/svg" viewBox="0 0 40 40.55"><defs><style>.cls-1{fill:#fff;}</style></defs><title>iconMedioAmbiente</title><g id="Capa_2" data-name="Capa 2"><g id="MEDIOAMBIENTE"><path class="cls-1" d="M2.38,8.87c1.48,3.43,4,6.83,7.45,8.29a8.17,8.17,0,0,0,1.32.39,13.45,13.45,0,0,1,3.24-3.43,16.15,16.15,0,0,1,3.35-1.88,8,8,0,0,0-1-.64c-1.45-.76-3-1.42-4.55-2.14,1.44.39,3.09.53,4.47,1A10.42,10.42,0,0,1,19,11.76a32.82,32.82,0,0,1,6.8-1.38C23.93,7.29,20,4.81,17,3.68S10.3,2.37,6.83,2A17.22,17.22,0,0,1,.69.06.46.46,0,0,0,0,.63C.86,3.29,1.28,6.31,2.38,8.87Z"/><path class="cls-1" d="M39.11,8.47c-3.92,2.12-8.41,2.39-12.82,2.89A36.31,36.31,0,0,0,20,12.53c-.44.13-.88.28-1.31.45A15.32,15.32,0,0,0,15,15a12.32,12.32,0,0,0-2.74,2.8,21.25,21.25,0,0,0-2.73,5.6A31.93,31.93,0,0,0,7.81,34.71a21.78,21.78,0,0,0,.46,4.7,2.08,2.08,0,0,0,.43,1,.5.5,0,0,0,.81-.49,16.19,16.19,0,0,1,1-10.5c1.57-3.69,4.59-5.88,8.29-7.22,1-.36,2-.67,3-1h.06a.2.2,0,0,1,.08.39c-1.2.55-2.39,1.09-3.53,1.68-5.56,2.9-8,9.66-5.9,9.66a1.61,1.61,0,0,0,.59-.14c3.22-1.33,7-1.35,10.57-2a17.82,17.82,0,0,0,3.59-1,18.38,18.38,0,0,0,9.65-10c1.43-3.3,2-7.2,3.07-10.63a.6.6,0,0,0-.56-.81A.52.52,0,0,0,39.11,8.47Z"/></g></g></svg>