<svg xmlns="http://www.w3.org/2000/svg" viewBox="0 0 30 36"><defs><style>.cls-1{fill:#fff;}</style></defs><title>iconPass</title><g id="Capa_2" data-name="Capa 2"><g id="LOGIN"><g id="icons"><path id="password" class="cls-1" d="M27,15H9V10.8a6.2,6.2,0,0,1,5.4-6.3,6.08,6.08,0,0,1,6.6,6h0A1.42,1.42,0,0,0,22.5,12H24a1.42,1.42,0,0,0,1.5-1.5h0A10.47,10.47,0,0,0,15.3,0,10.6,10.6,0,0,0,4.5,10.5V15H3a3,3,0,0,0-3,3V28.5A7.43,7.43,0,0,0,7.5,36h15A7.43,7.43,0,0,0,30,28.5V18A3,3,0,0,0,27,15ZM16.5,26.55V28.5A1.61,1.61,0,0,1,15,30a1.61,1.61,0,0,1-1.5-1.5V26.55A2.9,2.9,0,0,1,12,24a3,3,0,0,1,6,0A2.9,2.9,0,0,1,16.5,26.55Z"/></g></g></g></svg>