<svg xmlns="http://www.w3.org/2000/svg" xmlns:xlink="http://www.w3.org/1999/xlink" viewBox="0 0 75.3 131.76"><defs><style>.cls-1{fill:url(#Degradado_sin_nombre_54);}</style><linearGradient id="Degradado_sin_nombre_54" y1="65.88" x2="75.3" y2="65.88" gradientUnits="userSpaceOnUse"><stop offset="0" stop-color="#003ecf"/><stop offset="0.13" stop-color="#0143cf"/><stop offset="0.28" stop-color="#0250cf"/><stop offset="0.44" stop-color="#0567cf"/><stop offset="0.61" stop-color="#0987cf"/><stop offset="0.78" stop-color="#0eb0d0"/><stop offset="0.96" stop-color="#13e2d0"/><stop offset="0.97" stop-color="#14e7d0"/></linearGradient></defs><title>iconEnergiaColor</title><g id="Capa_2" data-name="Capa 2"><g id="ENERGIA"><path class="cls-1" d="M4.71,130.93,46.88,88.56a2.74,2.74,0,0,0-2-4.68H41.57a2.75,2.75,0,0,1-2.16-4.45l22.37-28.2a2.74,2.74,0,0,0-2.16-4.44H48.38a2.75,2.75,0,0,1-2.2-4.4l28.57-38A2.74,2.74,0,0,0,72.55,0H27.37a2.75,2.75,0,0,0-2.46,1.52L2.83,46.21a2.74,2.74,0,0,0,2.45,4H15.47a2.75,2.75,0,0,1,2.46,4L2.83,84.7a2.74,2.74,0,0,0,2.45,4h9.6a2.74,2.74,0,0,1,2.47,3.94L.3,127.8A2.74,2.74,0,0,0,4.71,130.93Z"/></g></g></svg>