<svg xmlns="http://www.w3.org/2000/svg" xmlns:xlink="http://www.w3.org/1999/xlink" viewBox="0 0 146.16 157.67"><defs><style>.cls-1{fill:none;stroke:#8bc53f;stroke-miterlimit:10;stroke-width:12px;}.cls-2{font-size:10.77px;fill:#fff;font-family:Poppins-ExtraLight, Poppins ExtraLight;font-weight:200;}.cls-3{fill:url(#Degradado_sin_nombre_7);}.cls-4{fill:url(#Degradado_sin_nombre_4);}.cls-5{fill:url(#Degradado_sin_nombre_4-2);}.cls-6{fill:url(#Degradado_sin_nombre_4-3);}</style><linearGradient id="Degradado_sin_nombre_7" x1="-552.47" y1="494.03" x2="-552.47" y2="482.68" gradientTransform="matrix(0.98, 0.21, -0.21, 0.98, 726.5, -339.82)" gradientUnits="userSpaceOnUse"><stop offset="0.03" stop-color="#107238"/><stop offset="0.98" stop-color="#81be3e"/></linearGradient><linearGradient id="Degradado_sin_nombre_4" x1="62.47" y1="38.24" x2="80.16" y2="20.55" gradientUnits="userSpaceOnUse"><stop offset="0.09" stop-color="#8bc53f"/><stop offset="0.94" stop-color="#006837"/></linearGradient><linearGradient id="Degradado_sin_nombre_4-2" x1="44.69" y1="26.37" x2="101.43" y2="26.37" xlink:href="#Degradado_sin_nombre_4"/><linearGradient id="Degradado_sin_nombre_4-3" x1="51.24" y1="12.63" x2="63.24" y2="12.63" xlink:href="#Degradado_sin_nombre_4"/></defs><title>iconAhorro</title><g id="Capa_2" data-name="Capa 2"><g id="FINANZAS"><path class="cls-1" d="M37.69,27.26A68.3,68.3,0,0,0,16.22,49.09C-3.43,81,6.1,122.47,37.5,141.84s72.79,9.24,92.43-22.61,10.13-73.39-21.27-92.75"/><text class="cls-2" transform="translate(25.08 69.51)">Ahorro de Energía</text><path class="cls-3" d="M84.07,27.29a4,4,0,0,1-3.86-4.68,16.09,16.09,0,0,1,2.9.61c.26,1.26,2.21,2.52,2.21,2.52a5.81,5.81,0,0,1-1.67-2.39,12.7,12.7,0,0,0,2.46.67,3.34,3.34,0,0,0,2,1.25,4.08,4.08,0,0,1-1.38-1.19,6,6,0,0,0,3.37-.91,11.76,11.76,0,0,1-3.38.41,4.87,4.87,0,0,1,1.61-1,3.4,3.4,0,0,0-2.24,1,12.16,12.16,0,0,1-2.35-.72,6.63,6.63,0,0,1,2.52-1.72s-2.39.43-3,1.58A11.78,11.78,0,0,0,80.32,22c.19-3.49,4.64-3.57,6.52-2.31s2.29,2.14,6.08,2C91.45,25.29,87.29,27.64,84.07,27.29ZM77.72,17.18a7.56,7.56,0,0,1-.24,3.48l.07,0c4.09-1.34.09-6.29.09-6.29A13.66,13.66,0,0,1,76.06,17c-1.1,1.42-1,4.12,1.14,3.69A9.14,9.14,0,0,0,77.72,17.18Zm2.5,5.43s.08-.59.09-.59a5.51,5.51,0,0,0-3.82.61,7.06,7.06,0,0,0,1-2l-.28.07a8.57,8.57,0,0,1-1.45,2.21,18.51,18.51,0,0,0-2,1.58s0,.67.66.45C74.7,24.4,77.63,22.06,80.22,22.61Z"/><path class="cls-4" d="M77.22,38.74a5.9,5.9,0,1,1-8.89-5.08V15.93a3,3,0,1,1,6,0V33.66A5.86,5.86,0,0,1,77.22,38.74Zm-1.17,0a4.72,4.72,0,0,0-2.59-4.22l-.32-.16V15.93a1.83,1.83,0,0,0-3.65,0V34.36l-.31.16a4.73,4.73,0,1,0,6.87,4.22Zm-1,0a3.77,3.77,0,1,1-4.73-3.63l.21-.06V24.73h1.51V35.05l.21.06A3.76,3.76,0,0,1,75.08,38.74ZM71.5,36.23a.74.74,0,0,0-.9-.56,3.09,3.09,0,0,0-2.42,3,.75.75,0,0,0,1.5,0,1.63,1.63,0,0,1,1.25-1.57A.75.75,0,0,0,71.5,36.23Z"/><path class="cls-5" d="M101.33,15.73C100.51,6.61,94.05,0,86,0A15.27,15.27,0,0,0,72.9,7.54,14.7,14.7,0,0,0,60.14,0C52.07,0,45.62,6.61,44.79,15.73a16,16,0,0,0,.48,6,25.61,25.61,0,0,0,7.86,13.1L72.89,52.75,93,34.81a25.66,25.66,0,0,0,7.85-13.1A16,16,0,0,0,101.33,15.73Zm-2.6,5.48a23.55,23.55,0,0,1-7.19,12L72.9,49.81,54.59,33.2a23.56,23.56,0,0,1-7.2-12,14.15,14.15,0,0,1-.45-5.12L47,16c.71-8,6.25-13.79,13.18-13.79a12.78,12.78,0,0,1,11.75,8.2l1,2.38,1-2.38A13.2,13.2,0,0,1,86,2.18c6.93,0,12.47,5.8,13.2,13.89A14.26,14.26,0,0,1,98.73,21.21Z"/><path class="cls-6" d="M62.15,6.63A10.92,10.92,0,0,0,51.24,17.54a1.09,1.09,0,0,0,2.18,0,8.74,8.74,0,0,1,8.73-8.73,1.09,1.09,0,1,0,0-2.18Z"/></g></g></svg>