<svg xmlns="http://www.w3.org/2000/svg" xmlns:xlink="http://www.w3.org/1999/xlink" viewBox="0 0 88.5 105.5"><defs><style>.\30 3b8bb58-ac27-4e62-bd87-917523903825{fill:#1a1a1a;stroke:#fff;stroke-miterlimit:10;opacity:0.82;}.\36 2e69493-2405-45dd-b00d-8e41d37e0375{fill:#fff;}.f5a3a47d-3bd3-4072-97fa-ff5831e2764c{fill:url(#56171253-6c5e-4197-bc95-0cb258e172de);}</style><linearGradient id="56171253-6c5e-4197-bc95-0cb258e172de" x1="44.27" y1="101.25" x2="44.27" y2="36.11" gradientUnits="userSpaceOnUse"><stop offset="0.91" stop-color="#2d913e"/><stop offset="0.92" stop-color="#fff"/></linearGradient></defs><title>iconGreenBox</title><g id="51c43d41-2b1a-487b-b1b7-6c6b0a8eb98c" data-name="Capa 2"><g id="96207746-6568-4fe6-a08f-482b835cb04e" data-name="Personal-Marta1-Inicio"><rect class="03b8bb58-ac27-4e62-bd87-917523903825" x="0.5" y="0.5" width="87.5" height="104.5"/><circle class="62e69493-2405-45dd-b00d-8e41d37e0375" cx="44.27" cy="18.34" r="11.84"/><path class="f5a3a47d-3bd3-4072-97fa-ff5831e2764c" d="M62,62.38,59.32,41.44a5.9,5.9,0,0,0-5.89-5.33H50.19a3,3,0,0,0-2.1.86L44.27,40.8,40.44,37a3,3,0,0,0-2.1-.86H35.1a5.89,5.89,0,0,0-5.89,5.25l-2.69,21a3,3,0,0,0,2.94,3.33h3.2l2.48,30.2A5.9,5.9,0,0,0,41,101.25h6.48a5.92,5.92,0,0,0,5.9-5.38l2.47-30.15h3.19a3,3,0,0,0,2.22-1A2.92,2.92,0,0,0,62,62.38Z"/></g></g></svg>