<svg xmlns="http://www.w3.org/2000/svg" xmlns:xlink="http://www.w3.org/1999/xlink" viewBox="0 0 62 54"><defs><style>.cls-1{fill:url(#Degradado_sin_nombre_6);}.cls-2{fill:#fff;}</style><linearGradient id="Degradado_sin_nombre_6" y1="27" x2="62" y2="27" gradientUnits="userSpaceOnUse"><stop offset="0.09" stop-color="#8ac43f"/><stop offset="0.94" stop-color="#006837"/></linearGradient></defs><title>iconTemperatura</title><g id="Capa_2" data-name="Capa 2"><g id="MEDIOAMBIENTE"><rect class="cls-1" width="62" height="54"/><path class="cls-2" d="M39.33,29.21c-3.1-.32-3.12-2.64-3-3.46a12.94,12.94,0,0,1,2.27.45c.2.93,1.74,1.86,1.74,1.86A4.25,4.25,0,0,1,39,26.3a10.41,10.41,0,0,0,1.93.49,2.66,2.66,0,0,0,1.58.93,3.35,3.35,0,0,1-1.08-.89,5,5,0,0,0,2.65-.66,10.33,10.33,0,0,1-2.65.3,3.82,3.82,0,0,1,1.26-.77,2.73,2.73,0,0,0-1.76.74,9.12,9.12,0,0,1-1.84-.54,5.1,5.1,0,0,1,2-1.27s-1.88.32-2.37,1.17a9.69,9.69,0,0,0-2.31-.48c.15-2.57,3.64-2.63,5.13-1.7s1.79,1.58,4.77,1.47A7.43,7.43,0,0,1,39.33,29.21Zm-5-7.47a5.26,5.26,0,0,1-.19,2.57l.05,0c3.21-1,.08-4.64.08-4.64a10.19,10.19,0,0,1-1.25,2c-.86,1-.78,3,.9,2.72A6.39,6.39,0,0,0,34.34,21.74Zm2,4s.07-.43.07-.43a4.53,4.53,0,0,0-3,.45,5.12,5.12,0,0,0,.78-1.46l-.22.05A6.11,6.11,0,0,1,32.79,26a15.81,15.81,0,0,0-1.56,1.17.36.36,0,0,0,.52.33A5.57,5.57,0,0,1,36.3,25.75Z"/><path class="cls-2" d="M33.94,37.66a4.64,4.64,0,0,1-9.27,0A4.28,4.28,0,0,1,27,33.91V20.82a2.35,2.35,0,0,1,4.69,0V33.91A4.28,4.28,0,0,1,33.94,37.66Zm-.91,0a3.47,3.47,0,0,0-2-3.12l-.25-.11V20.82a1.43,1.43,0,0,0-2.86,0V34.43l-.25.11a3.48,3.48,0,0,0-2,3.12,3.73,3.73,0,0,0,7.44,0Zm-.77,0a3,3,0,0,1-5.91,0A2.8,2.8,0,0,1,28.55,35l.17,0V27.32H29.9v7.61l.17,0A2.8,2.8,0,0,1,32.26,37.66Zm-2.81-1.85a.58.58,0,0,0-.7-.42,2.33,2.33,0,0,0-1.91,2.24.6.6,0,0,0,1.19,0,1.21,1.21,0,0,1,1-1.16A.55.55,0,0,0,29.45,35.81Z"/><path class="cls-2" d="M52.89,20.67c-.65-6.73-5.72-11.61-12.06-11.61a12.15,12.15,0,0,0-10.27,5.56,11.7,11.7,0,0,0-10-5.56c-6.34,0-11.41,4.88-12.06,11.61a11.33,11.33,0,0,0,.38,4.41A18.74,18.74,0,0,0,15,34.76L30.54,48l15.8-13.24a18.8,18.8,0,0,0,6.17-9.68A11.33,11.33,0,0,0,52.89,20.67Zm-2,4a17.11,17.11,0,0,1-5.65,8.85L30.56,45.83,16.17,33.56a17.15,17.15,0,0,1-5.65-8.85,9.81,9.81,0,0,1-.36-3.78v-.09c.56-5.89,4.92-10.17,10.36-10.17a10,10,0,0,1,9.23,6l.79,1.76.79-1.76a10.39,10.39,0,0,1,9.49-6c5.44,0,9.8,4.28,10.36,10.25A9.46,9.46,0,0,1,50.84,24.71Z"/><path class="cls-2" d="M22.11,14A8.34,8.34,0,0,0,13.54,22a.86.86,0,0,0,1.71,0,6.67,6.67,0,0,1,6.86-6.44.81.81,0,1,0,0-1.62Z"/></g></g></svg>