<svg xmlns="http://www.w3.org/2000/svg" xmlns:xlink="http://www.w3.org/1999/xlink" viewBox="0 0 35.53 94.75"><defs><style>.cls-1{fill:#fff;}.cls-2{fill:url(#Degradado_sin_nombre_15);}</style><linearGradient id="Degradado_sin_nombre_15" x1="17.77" y1="94.75" x2="17.77" y2="29.61" gradientUnits="userSpaceOnUse"><stop offset="0.59" stop-color="#f05a24"/><stop offset="0.59" stop-color="#fff"/></linearGradient></defs><title>iconOrange</title><g id="Capa_2" data-name="Capa 2"><g id="Personal_Ignacio" data-name="Personal Ignacio"><circle class="cls-1" cx="17.77" cy="11.84" r="11.84"/><path class="cls-2" d="M35.51,55.88,32.82,34.94a5.9,5.9,0,0,0-5.89-5.33H23.69a3,3,0,0,0-2.1.86L17.77,34.3l-3.83-3.83a3,3,0,0,0-2.1-.86H8.6a5.88,5.88,0,0,0-5.88,5.25L0,55.89A3,3,0,0,0,3,59.22h3.2l2.47,30.2a5.91,5.91,0,0,0,5.9,5.33H21a5.92,5.92,0,0,0,5.9-5.38l2.47-30.15h3.19a3,3,0,0,0,2.22-1A2.91,2.91,0,0,0,35.51,55.88Z"/></g></g></svg>