<svg xmlns="http://www.w3.org/2000/svg" viewBox="0 0 40 42.08"><defs><style>.cls-1{fill:#fff;}</style></defs><title>iconDataCenter</title><g id="Capa_2" data-name="Capa 2"><g id="MEDIOAMBIENTE"><path class="cls-1" d="M0,16.84v8.4A3.32,3.32,0,0,0,.56,27.1H39.44A3.32,3.32,0,0,0,40,25.24v-8.4A3.34,3.34,0,0,0,39.44,15H.56A3.37,3.37,0,0,0,0,16.84ZM34.67,21.4a.71.71,0,1,1-.67.71A.69.69,0,0,1,34.67,21.4Zm-1.34-2.14a.72.72,0,1,1-.66.71A.69.69,0,0,1,33.33,19.26ZM32,21.4a.71.71,0,1,1-.67.71A.69.69,0,0,1,32,21.4Zm-1.33-2.14A.72.72,0,1,1,30,20,.69.69,0,0,1,30.67,19.26ZM29.33,21.4a.71.71,0,0,1,0,1.42.71.71,0,0,1,0-1.42ZM28,19.26a.72.72,0,1,1-.67.71A.69.69,0,0,1,28,19.26ZM26.67,21.4a.71.71,0,1,1-.67.71A.69.69,0,0,1,26.67,21.4Zm-1.34-2.14a.72.72,0,1,1-.66.71A.69.69,0,0,1,25.33,19.26ZM24,21.4a.71.71,0,1,1-.67.71A.69.69,0,0,1,24,21.4Zm-1.33-2.14A.72.72,0,1,1,22,20,.69.69,0,0,1,22.67,19.26ZM7,17.83a3.22,3.22,0,0,1,0,6.42,3.22,3.22,0,0,1,0-6.42Z"/><path class="cls-1" d="M39.44,13.55A3.34,3.34,0,0,0,40,11.69V3.29A3.19,3.19,0,0,0,36.93,0H3.07A3.19,3.19,0,0,0,0,3.29v8.4a3.34,3.34,0,0,0,.56,1.86Zm-4.77-5.7a.71.71,0,1,1-.67.71A.69.69,0,0,1,34.67,7.85ZM33.33,5.71a.71.71,0,1,1-.66.71A.69.69,0,0,1,33.33,5.71ZM32,7.85a.71.71,0,1,1-.67.71A.69.69,0,0,1,32,7.85ZM30.67,5.71a.71.71,0,1,1-.67.71A.69.69,0,0,1,30.67,5.71ZM29.33,7.85a.71.71,0,1,1-.66.71A.69.69,0,0,1,29.33,7.85ZM28,5.71a.71.71,0,1,1-.67.71A.69.69,0,0,1,28,5.71ZM26.67,7.85a.71.71,0,1,1-.67.71A.69.69,0,0,1,26.67,7.85ZM25.33,5.71a.71.71,0,1,1-.66.71A.69.69,0,0,1,25.33,5.71ZM24,7.85a.71.71,0,1,1-.67.71A.69.69,0,0,1,24,7.85ZM22.67,5.71a.71.71,0,1,1-.67.71A.69.69,0,0,1,22.67,5.71ZM7,4.28a3.12,3.12,0,0,1,3,3.21A3.12,3.12,0,0,1,7,10.7,3.12,3.12,0,0,1,4,7.49,3.12,3.12,0,0,1,7,4.28Z"/><path class="cls-1" d="M.56,28.53A3.37,3.37,0,0,0,0,30.39V38.8a3.18,3.18,0,0,0,3.07,3.28H36.93A3.18,3.18,0,0,0,40,38.8V30.39a3.37,3.37,0,0,0-.56-1.86ZM7,37.8a3.22,3.22,0,0,1,0-6.42A3.22,3.22,0,0,1,7,37.8Zm15.67-3.56a.72.72,0,1,1,.66-.72A.69.69,0,0,1,22.67,34.24ZM24,36.38a.72.72,0,1,1,.67-.72A.69.69,0,0,1,24,36.38Zm1.33-2.14a.72.72,0,1,1,.67-.72A.69.69,0,0,1,25.33,34.24Zm1.34,2.14a.72.72,0,1,1,.66-.72A.69.69,0,0,1,26.67,36.38ZM28,34.24a.72.72,0,1,1,.67-.72A.69.69,0,0,1,28,34.24Zm1.33,2.14a.72.72,0,1,1,.67-.72A.69.69,0,0,1,29.33,36.38Zm1.34-2.14a.72.72,0,1,1,.66-.72A.69.69,0,0,1,30.67,34.24ZM32,36.38a.72.72,0,1,1,.67-.72A.69.69,0,0,1,32,36.38Zm1.33-2.14a.72.72,0,1,1,.67-.72A.69.69,0,0,1,33.33,34.24Zm1.34,2.14a.72.72,0,1,1,.66-.72A.69.69,0,0,1,34.67,36.38Z"/></g></g></svg>