<svg xmlns="http://www.w3.org/2000/svg" viewBox="0 0 199.5 43"><defs><style>.\30 fbdd863-2517-4ab8-8c47-7b0cac8bd747{fill:blue;stroke:#fff;stroke-miterlimit:10;}.\30 c443097-d7cb-41a5-b9b9-49e04518f55b{fill:#fff;}</style></defs><title>iconRackBlue</title><g id="4b454e3d-940c-4ee0-9692-1c6cfb50b180" data-name="Capa 2"><g id="343b6378-a12e-4aa5-b506-cc9cf3ac6627" data-name="Máquinas-RACKS"><path class="0fbdd863-2517-4ab8-8c47-7b0cac8bd747" d="M.5.5v42H199V.5Zm17.75,36A14.25,14.25,0,1,1,32.5,22.25,14.27,14.27,0,0,1,18.25,36.5Z"/><path class="0c443097-d7cb-41a5-b9b9-49e04518f55b" d="M198.76,17.73V.5H91.6V17.73h5.25v7.54H91.6V42.5H198.76V25.27H192.7V17.73h6.06Zm-88,17.71h-7.45V28.15h7.45Zm0-10.4h-7.45V17.76h7.45Zm0-10.2h-7.45V7.56h7.45Zm11,20.6h-7.45V28.15h7.45Zm0-10.4h-7.45V17.76h7.45Zm0-10.2h-7.45V7.56h7.45Zm10.85,20.6h-7.45V28.15h7.45Zm0-10.4h-7.45V17.76h7.45Zm0-10.2h-7.45V7.56h7.45Zm10.74,20.6h-7.45V28.15h7.45Zm0-10.4h-7.45V17.76h7.45Zm0-10.2h-7.45V7.56h7.45Zm11,20.6h-7.45V28.15h7.45Zm0-10.4h-7.45V17.76h7.45Zm0-10.2h-7.45V7.56h7.45Zm10.85,20.6h-7.45V28.15h7.45Zm0-10.4h-7.45V17.76h7.45Zm0-10.2h-7.45V7.56h7.45Zm16.66,20.39h-9.61V30.79h9.61ZM177,22.76a7.67,7.67,0,1,1,7.67-7.67A7.67,7.67,0,0,1,177,22.76ZM181.83,15A4.81,4.81,0,1,1,177,10.23,4.81,4.81,0,0,1,181.83,15Z"/><path class="0c443097-d7cb-41a5-b9b9-49e04518f55b" d="M40.63,9.64c-1.2,0-2.17,1.73-2.17,3.86V32.79c0,2.13,1,3.86,2.17,3.86s2.17-1.73,2.17-3.86V13.5C42.8,11.37,41.83,9.64,40.63,9.64Z"/><path class="0c443097-d7cb-41a5-b9b9-49e04518f55b" d="M50.17,36.64c1.2,0,2.17-1.73,2.17-3.86V13.5c0-2.13-1-3.86-2.17-3.86S48,11.37,48,13.5V32.79C48,34.92,49,36.64,50.17,36.64Z"/><path class="0c443097-d7cb-41a5-b9b9-49e04518f55b" d="M59.71,36.64c1.2,0,2.17-1.73,2.17-3.86V13.5c0-2.13-1-3.86-2.17-3.86s-2.17,1.73-2.17,3.86V32.79C57.54,34.92,58.51,36.64,59.71,36.64Z"/><path class="0c443097-d7cb-41a5-b9b9-49e04518f55b" d="M69.25,36.64c1.2,0,2.17-1.73,2.17-3.86V13.5c0-2.13-1-3.86-2.17-3.86s-2.17,1.73-2.17,3.86V32.79C67.08,34.92,68.05,36.64,69.25,36.64Z"/><path class="0c443097-d7cb-41a5-b9b9-49e04518f55b" d="M78.79,36.64c1.2,0,2.17-1.73,2.17-3.86V13.5c0-2.13-1-3.86-2.17-3.86s-2.17,1.73-2.17,3.86V32.79C76.62,34.92,77.59,36.64,78.79,36.64Z"/><path class="0c443097-d7cb-41a5-b9b9-49e04518f55b" d="M23.44,29.16a4.51,4.51,0,0,1-4.63,4.36,4.51,4.51,0,0,1-4.63-4.36,4.29,4.29,0,0,1,2.29-3.75V12.32a2.35,2.35,0,0,1,4.69,0V25.41A4.29,4.29,0,0,1,23.44,29.16Zm-.92,0a3.46,3.46,0,0,0-2-3.11l-.25-.12V12.32a1.43,1.43,0,0,0-2.86,0V25.93l-.25.12a3.46,3.46,0,0,0-2,3.11,3.62,3.62,0,0,0,3.72,3.5A3.62,3.62,0,0,0,22.53,29.16Zm-.76,0a3,3,0,0,1-5.91,0A2.81,2.81,0,0,1,18,26.48l.17,0V18.82H19.4v7.62l.17,0A2.81,2.81,0,0,1,21.76,29.16ZM19,27.31a.59.59,0,0,0-.71-.42,2.32,2.32,0,0,0-1.9,2.24.59.59,0,0,0,1.18,0,1.21,1.21,0,0,1,1-1.16A.56.56,0,0,0,19,27.31Z"/></g></g></svg>