<svg xmlns="http://www.w3.org/2000/svg" viewBox="0 0 45.01 45"><defs><style>.cls-1{fill:#fff;}</style></defs><title>iconPersonal</title><g id="Capa_2" data-name="Capa 2"><g id="MEDIOAMBIENTE"><circle class="cls-1" cx="22.5" cy="5.63" r="5.63"/><path class="cls-1" d="M30.93,26.54,29.65,16.6a2.79,2.79,0,0,0-2.79-2.54H25.32a1.41,1.41,0,0,0-1,.41L22.5,16.29l-1.81-1.82a1.45,1.45,0,0,0-1-.41H18.15a2.79,2.79,0,0,0-2.79,2.5l-1.28,10a1.37,1.37,0,0,0,.34,1.11,1.4,1.4,0,0,0,1.05.48H17l1.18,14.34A2.79,2.79,0,0,0,21,45H24a2.81,2.81,0,0,0,2.81-2.55L28,28.13h1.51a1.43,1.43,0,0,0,1.06-.48A1.4,1.4,0,0,0,30.93,26.54Z"/><circle class="cls-1" cx="36.57" cy="5.63" r="5.63"/><path class="cls-1" d="M8.44,0a5.63,5.63,0,1,0,5.62,5.63A5.64,5.64,0,0,0,8.44,0Z"/><path class="cls-1" d="M45,26.54,43.72,16.6a2.81,2.81,0,0,0-2.8-2.54H39.38a1.45,1.45,0,0,0-1,.41l-1.81,1.82-1.82-1.82a1.43,1.43,0,0,0-1-.41H32.22a2.6,2.6,0,0,0-.5.1,5.58,5.58,0,0,1,.73,2.11l1.27,9.91a4.2,4.2,0,0,1-1,3.34,4,4,0,0,1-1.39,1l.93,9.15A2.81,2.81,0,0,0,35,42.19h3.08a2.81,2.81,0,0,0,2.8-2.55l1.17-11.51H43.6a1.4,1.4,0,0,0,1-.48A1.37,1.37,0,0,0,45,26.54Z"/><path class="cls-1" d="M12.3,29.51a4.23,4.23,0,0,1-1-3.32l1.28-10a5.22,5.22,0,0,1,.71-2,3.7,3.7,0,0,0-.48-.09H11.25a1.41,1.41,0,0,0-1,.41L8.44,16.29,6.62,14.47a1.41,1.41,0,0,0-1-.41H4.09a2.8,2.8,0,0,0-2.8,2.5L0,26.54a1.4,1.4,0,0,0,.34,1.11,1.43,1.43,0,0,0,1.06.48H2.93L4.1,39.66a2.8,2.8,0,0,0,2.8,2.53H10a2.81,2.81,0,0,0,2.8-2.55l.94-9.13A4.41,4.41,0,0,1,12.3,29.51Z"/></g></g></svg>