<svg xmlns="http://www.w3.org/2000/svg" viewBox="0 0 28.82 28.53"><defs><style>.c410c91a-c170-48d5-8767-b0e5a33ecec1{fill:#fff;}</style></defs><title>iconSettings</title><g id="7559e50a-0206-41c9-bfc7-a0ca2c84c976" data-name="Capa 2"><g id="51af47b6-d9d9-48c0-904c-ccf93ad46784" data-name="Máquinas-RACKS"><path class="c410c91a-c170-48d5-8767-b0e5a33ecec1" d="M1.89,10.41a7,7,0,0,0,.63,1.49l-.76,1a.78.78,0,0,0,.06,1l1.3,1.3a.78.78,0,0,0,1,.06l.95-.75a6.9,6.9,0,0,0,1.55.66l.14,1.22a.78.78,0,0,0,.78.69H9.43a.78.78,0,0,0,.78-.69l.14-1.18A7,7,0,0,0,12,14.54l.92.73a.78.78,0,0,0,1-.06l1.3-1.3a.78.78,0,0,0,.06-1L14.61,12a6.81,6.81,0,0,0,.68-1.63l1.1-.13a.78.78,0,0,0,.69-.78V7.57a.78.78,0,0,0-.69-.78L15.3,6.67a6.86,6.86,0,0,0-.66-1.61l.67-.84a.78.78,0,0,0-.06-1L14,1.87a.78.78,0,0,0-1-.06l-.82.65a6.88,6.88,0,0,0-1.7-.71L10.28.69A.78.78,0,0,0,9.5,0H7.66a.78.78,0,0,0-.78.69L6.76,1.75A6.85,6.85,0,0,0,5,2.49l-.85-.67a.78.78,0,0,0-1,.06l-1.3,1.3a.78.78,0,0,0-.06,1l.71.9a6.73,6.73,0,0,0-.64,1.63L.69,6.88A.78.78,0,0,0,0,7.65V9.5a.78.78,0,0,0,.69.78Zm6-4.91A3.05,3.05,0,1,1,5.61,7.77,3.06,3.06,0,0,1,7.88,5.5Z"/><path class="c410c91a-c170-48d5-8767-b0e5a33ecec1" d="M26.83,10.87l-1-.82a.77.77,0,0,0-1,0l-.54.51a5.56,5.56,0,0,0-1.43-.46l-.15-.74a.78.78,0,0,0-.82-.62l-1.27.11a.77.77,0,0,0-.71.75l0,.75a5.58,5.58,0,0,0-1.37.72l-.64-.43a.77.77,0,0,0-1,.15l-.82,1a.77.77,0,0,0,0,1l.56.6a5.76,5.76,0,0,0-.41,1.37l-.8.16a.78.78,0,0,0-.62.82L14.89,17a.77.77,0,0,0,.75.71l.87,0a5.68,5.68,0,0,0,.62,1.17l-.49.73a.77.77,0,0,0,.15,1l1,.82a.77.77,0,0,0,1,0l.64-.6a5.58,5.58,0,0,0,1.31.43l.18.87a.78.78,0,0,0,.82.62L23,22.7A.77.77,0,0,0,23.7,22l0-.85A5.71,5.71,0,0,0,25,20.44l.7.46a.77.77,0,0,0,1-.15l.82-1a.77.77,0,0,0,0-1l-.57-.6a5.57,5.57,0,0,0,.45-1.38l.77-.16a.78.78,0,0,0,.62-.82l-.11-1.27a.77.77,0,0,0-.75-.71l-.77,0a5.61,5.61,0,0,0-.65-1.27l.42-.64A.77.77,0,0,0,26.83,10.87ZM22,18.21a2.5,2.5,0,1,1,2.28-2.7A2.5,2.5,0,0,1,22,18.21Z"/><path class="c410c91a-c170-48d5-8767-b0e5a33ecec1" d="M6.34,21.63a.77.77,0,0,0-.69.76v.78a.77.77,0,0,0,.67.78l.57.07a4.46,4.46,0,0,0,.41,1l-.37.46a.77.77,0,0,0,0,1l.55.56a.77.77,0,0,0,1,.07L9,26.78a4.52,4.52,0,0,0,1,.45l.06.59a.77.77,0,0,0,.76.69h.79a.77.77,0,0,0,.77-.67l.07-.56a4.65,4.65,0,0,0,1.11-.43l.44.35a.77.77,0,0,0,1,0l.56-.55a.78.78,0,0,0,.07-1l-.33-.43a4.48,4.48,0,0,0,.47-1.08l.51-.05a.77.77,0,0,0,.69-.76v-.78a.77.77,0,0,0-.67-.78l-.5-.06a4.66,4.66,0,0,0-.42-1.08l.31-.38a.77.77,0,0,0,0-1l-.55-.56a.77.77,0,0,0-1-.07l-.38.29a4.55,4.55,0,0,0-1.13-.49l0-.48a.77.77,0,0,0-.76-.7H11a.77.77,0,0,0-.78.67l-.06.48A4.67,4.67,0,0,0,9,18.76l-.39-.32a.77.77,0,0,0-1,0L7.06,19a.77.77,0,0,0-.07,1l.33.43a4.53,4.53,0,0,0-.44,1.08Zm4.48-.81a2,2,0,0,1,2.5,2.53,2,2,0,0,1-1.41,1.4,2,2,0,0,1-2.5-2.53A2,2,0,0,1,10.82,20.82Z"/></g></g></svg>