<svg xmlns="http://www.w3.org/2000/svg" viewBox="0 0 22.86 40"><defs><style>.cls-1{fill:#fff;}</style></defs><title>iconEnergia</title><g id="Capa_2" data-name="Capa 2"><g id="MEDIOAMBIENTE"><path class="cls-1" d="M1.43,39.75l12.8-12.86a.84.84,0,0,0-.59-1.43h-1A.83.83,0,0,1,12,24.11l6.79-8.56a.83.83,0,0,0-.65-1.35H14.69A.83.83,0,0,1,14,12.87L22.69,1.33A.83.83,0,0,0,22,0H8.31a.84.84,0,0,0-.75.46L.86,14a.83.83,0,0,0,.74,1.2H4.7a.83.83,0,0,1,.74,1.21L.86,25.71a.83.83,0,0,0,.74,1.21H4.52a.84.84,0,0,1,.75,1.2L.09,38.8A.83.83,0,0,0,1.43,39.75Z"/></g></g></svg>