<svg xmlns="http://www.w3.org/2000/svg" xmlns:xlink="http://www.w3.org/1999/xlink" viewBox="0 0 88.5 105.5"><defs><style>.cls-1{fill:#1a1a1a;stroke:#fff;stroke-miterlimit:10;opacity:0.82;}.cls-2{fill:#fff;}.cls-3{fill:url(#Degradado_sin_nombre_15);}</style><linearGradient id="Degradado_sin_nombre_15" x1="44.27" y1="101.25" x2="44.27" y2="36.11" gradientUnits="userSpaceOnUse"><stop offset="0.59" stop-color="#f05a24"/><stop offset="0.59" stop-color="#fff"/></linearGradient></defs><title>iconOrange_1</title><g id="Capa_2" data-name="Capa 2"><g id="Personal_Ignacio" data-name="Personal Ignacio"><rect class="cls-1" x="0.5" y="0.5" width="87.5" height="104.5"/><circle class="cls-2" cx="44.27" cy="18.34" r="11.84"/><path class="cls-3" d="M62,62.38,59.32,41.44a5.9,5.9,0,0,0-5.89-5.33H50.19a3,3,0,0,0-2.1.86L44.27,40.8,40.44,37a3,3,0,0,0-2.1-.86H35.1a5.88,5.88,0,0,0-5.88,5.25l-2.7,21a3,3,0,0,0,2.94,3.33h3.2l2.47,30.2a5.91,5.91,0,0,0,5.9,5.33h6.48a5.92,5.92,0,0,0,5.9-5.38l2.47-30.15h3.19a3,3,0,0,0,2.22-1A2.91,2.91,0,0,0,62,62.38Z"/></g></g></svg>