<svg xmlns="http://www.w3.org/2000/svg" xmlns:xlink="http://www.w3.org/1999/xlink" viewBox="0 0 132.04 154.57"><defs><style>.cls-1{fill:url(#Degradado_sin_nombre_96);}</style><linearGradient id="Degradado_sin_nombre_96" y1="77.28" x2="132.04" y2="77.28" gradientUnits="userSpaceOnUse"><stop offset="0.14" stop-color="#7f59f7"/><stop offset="0.85" stop-color="#662d90"/></linearGradient></defs><title>iconFinanzasCOLOR</title><g id="Capa_2" data-name="Capa 2"><g id="FINANZAS"><path class="cls-1" d="M131.34,137.79c-1.73-4.24-3.5-8.48-5.42-12.65-1.7-3.72-3.89-4.81-8-3.88-5.17,1.19-10.24,2.76-15.41,3.82-10,2.08-20,2.28-29.85-.84-12.36-3.88-18.94-12.84-23-24.39H83.23A4.74,4.74,0,0,0,88,95.1V84.54a4.74,4.74,0,0,0-4.75-4.75H46.51c0-3,0-5.78,0-8.6H83.23A4.74,4.74,0,0,0,88,66.44V55.88a4.74,4.74,0,0,0-4.75-4.75H51.13c0-.13,0-.26.06-.32C55.05,42,60.66,35,69.88,31.35c10.72-4.23,21.66-4.14,32.7-1.86,5.23,1.06,10.37,2.67,15.6,3.85,3.82.87,6-.25,7.67-3.81,1.9-4.11,3.63-8.29,5.36-12.49,1.64-3.95.68-6.74-3.05-8.92a18.66,18.66,0,0,0-2.89-1.38C109.8.7,93.85-1.54,77.39,1.09,65.8,3,55,6.93,45.64,14.18,33.86,23.3,26.22,35.33,21.79,49.49l-.54,1.64H4.75A4.74,4.74,0,0,0,0,55.88V66.44a4.74,4.74,0,0,0,4.75,4.75h13v8.6h-13A4.74,4.74,0,0,0,0,84.54V95.1a4.74,4.74,0,0,0,4.75,4.75H20.41c1.19,3.85,2.19,7.77,3.69,11.46,7.93,19.13,21.22,32.74,41.22,39.22,16.53,5.36,33.19,5.2,49.84.61a83.37,83.37,0,0,0,12.75-4.62C131.89,144.69,132.91,141.61,131.34,137.79Z"/></g></g></svg>