<svg xmlns="http://www.w3.org/2000/svg" viewBox="0 0 139.62 143.01"><defs><style>.ecdef88e-76ad-468b-b6f7-7966dad03890{fill:#a8ba00;}.\36 3bad588-3deb-44e2-9ac1-16a93a446cc7,.ecdef88e-76ad-468b-b6f7-7966dad03890{opacity:0.3;}.c60fe294-4dbe-4e14-b80d-07de556011cc{fill:#95d600;}.\34 d81652c-cec4-4191-ba33-9b2e84364b53{fill:#fff;}.\31 d4f27e0-3ecc-4555-8d8c-ab82a61207c3{fill:#accb46;}.\32 755f467-6a2d-44fe-ae40-82175910f55e,.cc633d53-2096-49f6-a715-df49dcac0c8b{fill:none;stroke-miterlimit:10;stroke-width:10.88px;}.\32 755f467-6a2d-44fe-ae40-82175910f55e{stroke:#fff;}.cc633d53-2096-49f6-a715-df49dcac0c8b{stroke:#accb46;}</style></defs><title>iconCyber</title><g id="4206cde5-0222-46b4-b469-4daf298c8b75" data-name="Capa 2"><g id="e02786b8-2634-49ad-9f3b-441f299e9310" data-name="LOGIN"><path class="ecdef88e-76ad-468b-b6f7-7966dad03890" d="M10.49,93.25S18.44,29.54,70.13,26.1c22.55-1.5,56.44,43.52,52.11,63.34C114.84,123.34,7,135.33,10.49,93.25Z"/><g class="63bad588-3deb-44e2-9ac1-16a93a446cc7"><path class="c60fe294-4dbe-4e14-b80d-07de556011cc" d="M54.59,142.15c-38.71-11-33.58-128.39-9-138.86s77.7,4.81,90,34.66S90.72,152.39,54.59,142.15Z"/></g><circle class="4d81652c-cec4-4191-ba33-9b2e84364b53" cx="48.18" cy="38.66" r="8.23"/><circle class="4d81652c-cec4-4191-ba33-9b2e84364b53" cx="8.74" cy="103.14" r="8.74"/><circle class="4d81652c-cec4-4191-ba33-9b2e84364b53" cx="62.97" cy="127.35" r="4.35"/><circle class="1d4f27e0-3ecc-4555-8d8c-ab82a61207c3" cx="109.19" cy="16.47" r="10.48"/><circle class="1d4f27e0-3ecc-4555-8d8c-ab82a61207c3" cx="128.29" cy="76.42" r="11.33"/><line class="2755f467-6a2d-44fe-ae40-82175910f55e" x1="8.74" y1="103.14" x2="80.22" y2="79.33"/><line class="2755f467-6a2d-44fe-ae40-82175910f55e" x1="48.18" y1="38.66" x2="80.22" y2="79.33"/><line class="cc633d53-2096-49f6-a715-df49dcac0c8b" x1="109.19" y1="16.47" x2="80.22" y2="79.33"/><line class="cc633d53-2096-49f6-a715-df49dcac0c8b" x1="128.29" y1="79.33" x2="80.22" y2="79.33"/><line class="2755f467-6a2d-44fe-ae40-82175910f55e" x1="62.97" y1="127.35" x2="80.22" y2="79.33"/><circle class="4d81652c-cec4-4191-ba33-9b2e84364b53" cx="80.22" cy="79.33" r="17.26"/></g></g></svg>