<svg xmlns="http://www.w3.org/2000/svg" viewBox="0 0 104.15 99.02"><defs><style>.cls-1,.cls-3{fill:none;}.cls-1{stroke:#f1f1f1;stroke-width:4px;}.cls-1,.cls-2,.cls-3{stroke-miterlimit:10;}.cls-2{fill:#fff;stroke:#ffa60a;}.cls-3{stroke:#ffac0a;stroke-width:12px;}.cls-4{fill:#ffa60a;}</style></defs><title>butonEnergia</title><g id="Capa_2" data-name="Capa 2"><g id="Máquinas-SERVIDORES"><ellipse class="cls-1" cx="52.07" cy="47.57" rx="46.2" ry="45.57"/><ellipse class="cls-2" cx="52.07" cy="47.57" rx="39.65" ry="39.11"/><path class="cls-3" d="M98.15,47.57C98.15,72.67,77.52,93,52.07,93S6,72.67,6,47.57"/><path class="cls-4" d="M61.67,60.29a.53.53,0,0,0-.48-.3H55l6.08-9.61a.51.51,0,0,0,0-.52.52.52,0,0,0-.46-.27H52.35a.53.53,0,0,0-.47.28l-7.8,15.61a.54.54,0,0,0,0,.51.53.53,0,0,0,.44.25h5.35L44.06,80.08a.53.53,0,0,0,.21.65.56.56,0,0,0,.27.08.53.53,0,0,0,.4-.19L61.59,60.85A.54.54,0,0,0,61.67,60.29Z"/></g></g></svg>