<svg xmlns="http://www.w3.org/2000/svg" viewBox="0 0 133.5 38"><defs><style>.cls-1{opacity:0.83;}.cls-2{fill:#fff;}</style></defs><title>buttonConfig</title><g id="Capa_2" data-name="Capa 2"><g id="Máquinas-RACKS"><rect class="cls-1" width="133.5" height="38"/><path class="cls-2" d="M23.11,14.24a6.73,6.73,0,0,0,.63,1.49l-.76,1a.77.77,0,0,0,.06,1L24.34,19a.78.78,0,0,0,1,.06l.95-.75a6.79,6.79,0,0,0,1.55.65L28,20.21a.79.79,0,0,0,.78.7h1.84a.79.79,0,0,0,.78-.7L31.56,19a7.25,7.25,0,0,0,1.66-.68l.91.73a.78.78,0,0,0,1-.06l1.31-1.3a.79.79,0,0,0,.06-1l-.72-.91a6.89,6.89,0,0,0,.69-1.63l1.1-.13a.78.78,0,0,0,.69-.77V11.4a.78.78,0,0,0-.69-.77l-1.09-.13a6.87,6.87,0,0,0-.65-1.61L36.53,8a.79.79,0,0,0-.05-1L35.17,5.7a.79.79,0,0,0-1-.06l-.81.65a7.2,7.2,0,0,0-1.7-.71l-.13-1.06a.78.78,0,0,0-.77-.69H28.87a.78.78,0,0,0-.77.69L28,5.58a6.66,6.66,0,0,0-1.74.74l-.85-.68a.79.79,0,0,0-1,.06L23,7A.77.77,0,0,0,23,8l.71.9a6.91,6.91,0,0,0-.64,1.63l-1.14.13a.79.79,0,0,0-.69.78v1.84a.78.78,0,0,0,.69.78Zm6-4.91A3.06,3.06,0,0,1,32.77,13a3,3,0,0,1-2.27,2.27,3.05,3.05,0,1,1-1.4-5.94Z"/><path class="cls-2" d="M48,14.7l-1-.83a.76.76,0,0,0-1,0l-.54.5a5.63,5.63,0,0,0-1.44-.46l-.15-.74a.78.78,0,0,0-.82-.62l-1.27.11a.77.77,0,0,0-.71.74l0,.76a5.61,5.61,0,0,0-1.37.72l-.64-.43a.77.77,0,0,0-1,.15l-.82,1a.76.76,0,0,0,0,1l.56.6a5.93,5.93,0,0,0-.41,1.38l-.81.16a.76.76,0,0,0-.61.82l.1,1.27a.79.79,0,0,0,.75.71l.87,0a5.66,5.66,0,0,0,.61,1.17l-.48.74a.76.76,0,0,0,.14,1l1,.82a.75.75,0,0,0,1,0l.64-.6a5.59,5.59,0,0,0,1.31.43l.17.87a.79.79,0,0,0,.83.62l1.27-.11a.78.78,0,0,0,.71-.75l0-.85a5.2,5.2,0,0,0,1.31-.66l.7.46a.77.77,0,0,0,1-.14l.82-1a.75.75,0,0,0,0-1L48.2,22a5.17,5.17,0,0,0,.44-1.38l.78-.16a.78.78,0,0,0,.62-.82l-.11-1.27a.79.79,0,0,0-.75-.71l-.77,0a5.51,5.51,0,0,0-.65-1.28l.42-.63A.76.76,0,0,0,48,14.7ZM43.26,22a2.5,2.5,0,1,1,2.27-2.7A2.49,2.49,0,0,1,43.26,22Z"/><path class="cls-2" d="M27.56,25.46a.79.79,0,0,0-.7.76V27a.78.78,0,0,0,.68.78l.57.07a4.38,4.38,0,0,0,.41,1l-.37.46a.77.77,0,0,0,.05,1l.54.56a.78.78,0,0,0,1,.07l.46-.36a5,5,0,0,0,1,.45l.06.59a.79.79,0,0,0,.76.7h.78a.76.76,0,0,0,.78-.67l.07-.56a4.82,4.82,0,0,0,1.11-.43l.44.35a.78.78,0,0,0,1-.05l.56-.55a.78.78,0,0,0,.07-1L36.57,29A4.71,4.71,0,0,0,37,27.9l.51,0a.79.79,0,0,0,.7-.76v-.78a.79.79,0,0,0-.68-.78l-.5-.06a4.64,4.64,0,0,0-.42-1.09L37,24a.77.77,0,0,0,0-1l-.54-.55a.77.77,0,0,0-1-.08l-.37.29a4.72,4.72,0,0,0-1.13-.49l-.05-.48A.79.79,0,0,0,33,21h-.78a.77.77,0,0,0-.78.67l-.06.48a5,5,0,0,0-1.17.48l-.38-.32a.77.77,0,0,0-1,.05l-.56.55a.78.78,0,0,0-.07,1l.33.42a4.62,4.62,0,0,0-.44,1.08ZM32,24.65a2,2,0,0,1,2.51,2.53,2,2,0,0,1-1.42,1.39A2,2,0,0,1,30.62,26,2,2,0,0,1,32,24.65Z"/></g></g></svg>