<svg xmlns="http://www.w3.org/2000/svg" viewBox="0 0 102.15 98.02"><defs><style>.cls-1,.cls-3,.cls-4{fill:none;}.cls-1{stroke:#f1f1f1;stroke-width:4px;}.cls-1,.cls-2,.cls-3,.cls-4{stroke-miterlimit:10;}.cls-2{fill:#fff;stroke-width:2px;opacity:0.95;}.cls-2,.cls-3,.cls-4{stroke:#0042ff;}.cls-3{stroke-width:10px;}.cls-4{fill-rule:evenodd;}</style></defs><title>buttonHumedad</title><g id="Capa_2" data-name="Capa 2"><g id="Máquinas-SERVIDORES"><ellipse class="cls-1" cx="51.07" cy="47.57" rx="46.2" ry="45.57"/><ellipse class="cls-2" cx="51.07" cy="47.57" rx="39.65" ry="39.11"/><path class="cls-3" d="M97.15,47.57C97.15,72.67,76.52,93,51.07,93S5,72.67,5,47.57"/><path class="cls-4" d="M38.36,71.09A10.6,10.6,0,0,0,48.67,82,10.59,10.59,0,0,0,59,71.09c0-7.69-8-12.69-8.64-21.25v-.36a1.67,1.67,0,1,0-3.33,0v.36C46.34,58.4,38.36,63.4,38.36,71.09ZM50.1,75.53A4.23,4.23,0,0,0,53,72.43a1.36,1.36,0,0,1,1.31-1.18,1.38,1.38,0,0,1,1.33,1.42,6.62,6.62,0,0,1-1.9,3.77,5.4,5.4,0,0,1-3.42,1.94A1.39,1.39,0,0,1,49,76.94,1.41,1.41,0,0,1,50.1,75.53Z"/></g></g></svg>