<svg xmlns="http://www.w3.org/2000/svg" viewBox="0 0 36 38.57"><defs><style>.cls-1{fill:#fff;}</style></defs><title>iconCalendar</title><g id="Capa_2" data-name="Capa 2"><g id="Personal-Marta1-Inicio"><rect class="cls-1" x="12.86" y="27.64" width="4.5" height="4.5"/><rect class="cls-1" x="12.86" y="16.07" width="4.5" height="4.5"/><rect class="cls-1" x="12.86" y="21.86" width="4.5" height="4.5"/><rect class="cls-1" x="7.07" y="21.86" width="4.5" height="4.5"/><rect class="cls-1" x="7.07" y="16.07" width="4.5" height="4.5"/><rect class="cls-1" x="7.07" y="27.64" width="4.5" height="4.5"/><rect class="cls-1" x="24.43" y="16.07" width="4.5" height="4.5"/><path class="cls-1" d="M35.36,2.57h-4.5V.64A.65.65,0,0,0,30.21,0h-4.5a.64.64,0,0,0-.64.64V2.57H10.93V.64A.64.64,0,0,0,10.29,0H5.79a.65.65,0,0,0-.65.64V2.57H.64A.64.64,0,0,0,0,3.21V37.93a.64.64,0,0,0,.64.64H35.36a.64.64,0,0,0,.64-.64V3.21A.64.64,0,0,0,35.36,2.57Zm-5.15,18V33.43H5.79V14.79H30.21Zm4.5-10.93H1.29V3.86H5.14V5.79a.65.65,0,0,0,.65.64h4.5a.64.64,0,0,0,.64-.64V3.86H25.07V5.79a.64.64,0,0,0,.64.64h4.5a.65.65,0,0,0,.65-.64V3.86h3.85Z"/><rect class="cls-1" x="24.43" y="21.86" width="4.5" height="4.5"/><rect class="cls-1" x="24.43" y="27.64" width="4.5" height="4.5"/><rect class="cls-1" x="18.64" y="27.64" width="4.5" height="4.5"/><rect class="cls-1" x="18.64" y="21.86" width="4.5" height="4.5"/><rect class="cls-1" x="18.64" y="16.07" width="4.5" height="4.5"/></g></g></svg>