<svg xmlns="http://www.w3.org/2000/svg" viewBox="0 0 58.94 58"><defs><style>.cls-1{fill:#607525;}.cls-2{fill:#a8ba00;opacity:0.3;isolation:isolate;}.cls-3,.cls-5{fill:#fff;}.cls-4,.cls-7,.cls-8{fill:none;}.cls-4,.cls-5{stroke:#fff;}.cls-4,.cls-5,.cls-7,.cls-8{stroke-miterlimit:10;}.cls-5,.cls-8{stroke-width:3px;}.cls-6{fill:#b4c952;}.cls-7,.cls-8{stroke:#b4c952;}</style></defs><title>iconMenu</title><g id="Capa_2" data-name="Capa 2"><g id="Personal-Marta1-Inicio"><path class="cls-1" d="M23.52,57.65C7,53.19,9.14,5.58,19.67,1.34s33.27,2,38.54,14.05S39,61.81,23.52,57.65Z"/><path class="cls-2" d="M0,36.54S3.77,6.68,28,5.06c10.57-.7,26.46,20.4,24.43,29.69C49,50.64-1.6,56.26,0,36.54Z"/></g><g id="LOGIN"><circle class="cls-3" cx="9.09" cy="11.5" r="6"/><circle class="cls-4" cx="9.09" cy="11.5" r="6"/><line class="cls-5" x1="9.09" y1="11.5" x2="45.09" y2="11.5"/><circle class="cls-6" cx="49.09" cy="26.5" r="6"/><circle class="cls-7" cx="49.09" cy="26.5" r="6"/><line class="cls-6" x1="49.09" y1="26.5" x2="13.09" y2="26.5"/><line class="cls-8" x1="49.09" y1="26.5" x2="13.09" y2="26.5"/><circle class="cls-3" cx="10.09" cy="42.5" r="6"/><circle class="cls-4" cx="10.09" cy="42.5" r="6"/><line class="cls-5" x1="10.09" y1="42.5" x2="46.09" y2="42.5"/></g></g></svg>