<svg xmlns="http://www.w3.org/2000/svg" xmlns:xlink="http://www.w3.org/1999/xlink" viewBox="0 0 119.6 119.59"><defs><style>.cls-1{fill:url(#Degradado_sin_nombre_65);}.cls-2{fill:url(#Degradado_sin_nombre_65-2);}.cls-3{fill:url(#Degradado_sin_nombre_65-3);}.cls-4{fill:url(#Degradado_sin_nombre_65-4);}.cls-5{fill:url(#Degradado_sin_nombre_65-5);}.cls-6{fill:url(#Degradado_sin_nombre_65-6);}</style><linearGradient id="Degradado_sin_nombre_65" x1="44.85" y1="14.95" x2="74.75" y2="14.95" gradientUnits="userSpaceOnUse"><stop offset="0.09" stop-color="#f6921e"/><stop offset="0.91" stop-color="#ec3a24"/></linearGradient><linearGradient id="Degradado_sin_nombre_65-2" x1="37.37" y1="78.48" x2="82.22" y2="78.48" xlink:href="#Degradado_sin_nombre_65"/><linearGradient id="Degradado_sin_nombre_65-3" x1="82.22" y1="14.95" x2="112.12" y2="14.95" xlink:href="#Degradado_sin_nombre_65"/><linearGradient id="Degradado_sin_nombre_65-4" x1="7.47" y1="14.95" x2="37.37" y2="14.95" xlink:href="#Degradado_sin_nombre_65"/><linearGradient id="Degradado_sin_nombre_65-5" x1="83.17" y1="74.75" x2="119.6" y2="74.75" xlink:href="#Degradado_sin_nombre_65"/><linearGradient id="Degradado_sin_nombre_65-6" x1="0" y1="74.75" x2="36.45" y2="74.75" xlink:href="#Degradado_sin_nombre_65"/></defs><title>iconPersonalCOLOR</title><g id="Capa_2" data-name="Capa 2"><g id="Personal-General"><circle class="cls-1" cx="59.8" cy="14.95" r="14.95"/><path class="cls-2" d="M82.19,70.53,78.8,44.1a7.45,7.45,0,0,0-7.43-6.73h-4.1a3.77,3.77,0,0,0-2.64,1.09L59.8,43.29,55,38.46a3.78,3.78,0,0,0-2.65-1.09H48.23A7.44,7.44,0,0,0,40.8,44L37.4,70.54a3.75,3.75,0,0,0,3.71,4.21h4l3.12,38.12a7.45,7.45,0,0,0,7.44,6.72h8.18a7.47,7.47,0,0,0,7.45-6.79l3.12-38h4a3.76,3.76,0,0,0,2.81-1.27A3.72,3.72,0,0,0,82.19,70.53Z"/><circle class="cls-3" cx="97.17" cy="14.95" r="14.95"/><path class="cls-4" d="M22.42,0A15,15,0,1,0,37.37,15,15,15,0,0,0,22.42,0Z"/><path class="cls-5" d="M119.56,70.53l-3.39-26.42a7.44,7.44,0,0,0-7.43-6.74h-4.09A3.78,3.78,0,0,0,102,38.46l-4.83,4.83-4.83-4.83a3.77,3.77,0,0,0-2.64-1.09H85.61a7.43,7.43,0,0,0-1.33.25,14.53,14.53,0,0,1,2,5.62l3.38,26.34a11.19,11.19,0,0,1-2.73,8.87,11.06,11.06,0,0,1-3.71,2.63l2.48,24.31a7.45,7.45,0,0,0,7.44,6.73h8.18a7.47,7.47,0,0,0,7.45-6.79l3.11-30.58h4a3.76,3.76,0,0,0,2.8-1.27A3.65,3.65,0,0,0,119.56,70.53Z"/><path class="cls-6" d="M32.69,78.41A11.18,11.18,0,0,1,30,69.6l3.4-26.55a13.86,13.86,0,0,1,1.86-5.44A7.39,7.39,0,0,0,34,37.37H29.9a3.8,3.8,0,0,0-2.65,1.09l-4.83,4.83L17.6,38.46A3.81,3.81,0,0,0,15,37.37h-4.1A7.43,7.43,0,0,0,3.43,44L0,70.54a3.74,3.74,0,0,0,3.71,4.21h4l3.13,30.64a7.45,7.45,0,0,0,7.44,6.73h8.18A7.46,7.46,0,0,0,34,105.33l2.49-24.26A11.26,11.26,0,0,1,32.69,78.41Z"/></g></g></svg>