<svg xmlns="http://www.w3.org/2000/svg" viewBox="0 0 39.52 35.19"><defs><style>.cls-1{fill:none;stroke:#fff;stroke-miterlimit:10;}.cls-2{fill:#00e000;}</style></defs><title>iconBoxSelected_1</title><g id="Capa_2" data-name="Capa 2"><g id="keywords"><rect class="cls-1" x="2.02" y="0.5" width="34" height="34" rx="3.26"/><path class="cls-2" d="M4.43,17.9A3.26,3.26,0,0,1,8.84,19l4.48,7.28a2.07,2.07,0,0,0,1.74,1.05A2,2,0,0,0,17,25.78C19.47,16.91,27.61,7.52,34,1.23a3.26,3.26,0,0,1,5.56,2.3V8.7a3.24,3.24,0,0,1-1.37,2.65c-5.71,4.07-16.16,15.89-22,22.7a3.24,3.24,0,0,1-4.71.24c-3-2.88-7.13-6.6-10.38-9.52a3.25,3.25,0,0,1,.54-5.23Z"/></g></g></svg>