<?xml version="1.0" encoding="utf-8"?>
<!-- Generator: Adobe Illustrator 23.0.6, SVG Export Plug-In . SVG Version: 6.00 Build 0)  -->
<svg version="1.1" id="Capa_1" xmlns="http://www.w3.org/2000/svg" xmlns:xlink="http://www.w3.org/1999/xlink" x="0px" y="0px"
	 viewBox="0 0 512 512" style="enable-background:new 0 0 512 512;" xml:space="preserve">
<style type="text/css">
	.st0{fill:#FFFFFF;}
</style>
<path class="st0" d="M408.3,63C367.6,22.4,313.6,0,256.1,0C198.7,0,144.6,22.4,104,63s-63,94.7-63,152.1
	c0,50.3,17.7,99.2,49.8,137.7l0,0c8.2,9.8,17.3,18.9,27.1,27.1l127.6,127.6c2.9,2.9,6.8,4.4,10.6,4.4c3.8,0,7.7-1.5,10.6-4.4
	L394.4,380c9.8-8.2,18.9-17.3,27.1-27.1c32.1-38.5,49.9-87.4,49.9-137.7C471.3,157.7,448.9,103.6,408.3,63z M181.9,128.1v186.6
	c0,16.7-13.4,30.1-30.1,30.1s-30.1-13.4-30.1-30.1V128.1c0-16.7,13.4-30.1,30.1-30.1S181.9,111.4,181.9,128.1z M210.8,314.7V128.1
	c0-16.7,13.4-30.1,30.1-30.1h106.9c42.3,0,76.8,34.5,76.8,76.8s-34.5,76.8-76.8,76.8H271v63.2c0,16.7-13.4,30.1-30.1,30.1
	S210.8,331.4,210.8,314.7z"/>
<path class="st0" d="M382,172.4c0-13-9.3-23.7-20.6-23.7h-96.5v47.8h96.5C372.7,196.4,382,185.7,382,172.4z"/>
</svg>
