<svg xmlns="http://www.w3.org/2000/svg" viewBox="0 0 71 45.64"><defs><style>.cls-1{fill:#fff;}</style></defs><title>iconEye</title><g id="Capa_2" data-name="Capa 2"><g id="MEDIOAMBIENTE"><path class="cls-1" d="M70.21,20.09A42.28,42.28,0,0,0,55.29,5.51a38.29,38.29,0,0,0-39.58,0A42.28,42.28,0,0,0,.79,20.09,5.43,5.43,0,0,0,0,22.82a5.49,5.49,0,0,0,.79,2.74A42.45,42.45,0,0,0,15.71,40.14a38.46,38.46,0,0,0,19.79,5.5,38.63,38.63,0,0,0,19.79-5.48,42.09,42.09,0,0,0,14.92-14.6A5.49,5.49,0,0,0,71,22.82,5.43,5.43,0,0,0,70.21,20.09ZM27,9.25a11.6,11.6,0,0,1,8.5-3.54,1.88,1.88,0,0,1,1.9,1.9A1.81,1.81,0,0,1,36.85,9a1.84,1.84,0,0,1-1.35.56,7.9,7.9,0,0,0-5.82,2.42,7.9,7.9,0,0,0-2.42,5.82,1.84,1.84,0,0,1-.56,1.35,1.81,1.81,0,0,1-1.34.55,1.89,1.89,0,0,1-1.91-1.9A11.63,11.63,0,0,1,27,9.25ZM52.72,35.76a33.21,33.21,0,0,1-34.43,0A40.81,40.81,0,0,1,5.07,22.82a39,39,0,0,1,15.1-14,17.29,17.29,0,0,0-2.42,8.91A17.1,17.1,0,0,0,23,30.29,17.1,17.1,0,0,0,35.5,35.5,17.1,17.1,0,0,0,48,30.29a17.1,17.1,0,0,0,5.21-12.54,17.29,17.29,0,0,0-2.42-8.91,39,39,0,0,1,15.1,14A40.88,40.88,0,0,1,52.72,35.76Z"/></g></g></svg>