<svg xmlns="http://www.w3.org/2000/svg" viewBox="0 0 40 40"><defs><style>.cls-1{fill:#fff;}</style></defs><title>iconUser</title><g id="Capa_2" data-name="Capa 2"><g id="LOGIN"><g id="icons"><path id="user2" class="cls-1" d="M20,0A20,20,0,1,0,40,20,20.06,20.06,0,0,0,20,0Zm0,6.67c3.67,0,6.67,3.66,6.67,8.33s-3,8.33-6.67,8.33S13.33,19.67,13.33,15,16.33,6.67,20,6.67ZM31,32.5a16.92,16.92,0,0,1-11,4.17A16.92,16.92,0,0,1,9,32.5a1.62,1.62,0,0,1-.17-2.33,15,15,0,0,1,7-4.5,9.19,9.19,0,0,0,8.34,0,14.19,14.19,0,0,1,7,4.5A1.5,1.5,0,0,1,31,32.5Z"/></g></g></g></svg>