<svg xmlns="http://www.w3.org/2000/svg" xmlns:xlink="http://www.w3.org/1999/xlink" viewBox="0 0 101.24 99.58"><defs><style>.cls-1,.cls-2,.cls-3{stroke:#fff;stroke-miterlimit:10;stroke-width:2px;}.cls-1{fill:url(#Degradado_sin_nombre_139);}.cls-2{fill:url(#Degradado_sin_nombre_139-2);}.cls-3{fill:url(#Degradado_sin_nombre_139-3);}</style><linearGradient id="Degradado_sin_nombre_139" x1="1" y1="49.79" x2="100.24" y2="49.79" gradientUnits="userSpaceOnUse"><stop offset="0.05" stop-color="#39cb4a"/><stop offset="1" stop-color="#007e13"/></linearGradient><linearGradient id="Degradado_sin_nombre_139-2" y1="16.71" x2="100.24" y2="16.71" xlink:href="#Degradado_sin_nombre_139"/><linearGradient id="Degradado_sin_nombre_139-3" y1="82.87" x2="100.24" y2="82.87" xlink:href="#Degradado_sin_nombre_139"/></defs><title>iconDataCenterColor</title><g id="Capa_2" data-name="Capa 2"><g id="Máquinas-RACKS"><path class="cls-1" d="M1,40.05V59.54a7.48,7.48,0,0,0,1.38,4.31H98.85a7.39,7.39,0,0,0,1.39-4.31V40.05a7.51,7.51,0,0,0-1.38-4.32H2.38A7.51,7.51,0,0,0,1,40.05ZM87,50.62a1.66,1.66,0,1,1-1.66,1.65A1.65,1.65,0,0,1,87,50.62Zm-3.31-5A1.65,1.65,0,1,1,82,47.31,1.65,1.65,0,0,1,83.7,45.66Zm-3.31,5a1.66,1.66,0,1,1-1.65,1.65A1.65,1.65,0,0,1,80.39,50.62Zm-3.31-5a1.65,1.65,0,1,1-1.65,1.65A1.66,1.66,0,0,1,77.08,45.66Zm-3.31,5a1.66,1.66,0,1,1-1.65,1.65A1.65,1.65,0,0,1,73.77,50.62Zm-3.3-5a1.65,1.65,0,1,1-1.66,1.65A1.65,1.65,0,0,1,70.47,45.66Zm-3.31,5a1.66,1.66,0,1,1-1.66,1.65A1.65,1.65,0,0,1,67.16,50.62Zm-3.31-5a1.65,1.65,0,1,1-1.65,1.65A1.65,1.65,0,0,1,63.85,45.66Zm-3.31,5a1.66,1.66,0,1,1-1.65,1.65A1.65,1.65,0,0,1,60.54,50.62Zm-3.31-5a1.65,1.65,0,1,1-1.65,1.65A1.65,1.65,0,0,1,57.23,45.66ZM18.37,42.35a7.44,7.44,0,1,1-7.45,7.44A7.45,7.45,0,0,1,18.37,42.35Z"/><path class="cls-2" d="M98.86,32.43a7.51,7.51,0,0,0,1.38-4.32V8.62A7.63,7.63,0,0,0,92.62,1h-84A7.63,7.63,0,0,0,1,8.62V28.11a7.45,7.45,0,0,0,1.38,4.31H98.86ZM87,19.19a1.66,1.66,0,1,1-1.66,1.66A1.65,1.65,0,0,1,87,19.19Zm-3.31-5A1.66,1.66,0,1,1,82,15.89,1.65,1.65,0,0,1,83.7,14.23Zm-3.31,5a1.66,1.66,0,1,1-1.65,1.66A1.65,1.65,0,0,1,80.39,19.19Zm-3.31-5a1.66,1.66,0,1,1-1.65,1.66A1.66,1.66,0,0,1,77.08,14.23Zm-3.31,5a1.66,1.66,0,1,1-1.65,1.66A1.66,1.66,0,0,1,73.77,19.19Zm-3.3-5a1.66,1.66,0,1,1-1.66,1.66A1.65,1.65,0,0,1,70.47,14.23Zm-3.31,5a1.66,1.66,0,1,1-1.66,1.66A1.65,1.65,0,0,1,67.16,19.19Zm-3.31-5a1.66,1.66,0,1,1-1.65,1.66A1.65,1.65,0,0,1,63.85,14.23Zm-3.31,5a1.66,1.66,0,1,1-1.65,1.66A1.66,1.66,0,0,1,60.54,19.19Zm-3.31-5a1.66,1.66,0,1,1-1.65,1.66A1.66,1.66,0,0,1,57.23,14.23ZM18.37,10.92a7.45,7.45,0,1,1-7.45,7.45A7.45,7.45,0,0,1,18.37,10.92Z"/><path class="cls-3" d="M2.38,67.16A7.45,7.45,0,0,0,1,71.47V91a7.63,7.63,0,0,0,7.62,7.62h84A7.63,7.63,0,0,0,100.24,91V71.47a7.39,7.39,0,0,0-1.39-4.31Zm16,21.5a7.45,7.45,0,1,1,7.44-7.44A7.45,7.45,0,0,1,18.37,88.66Zm38.86-8.27a1.66,1.66,0,1,1,1.66-1.65A1.65,1.65,0,0,1,57.23,80.39Zm3.31,5A1.66,1.66,0,1,1,62.2,83.7,1.65,1.65,0,0,1,60.54,85.35Zm3.31-5a1.66,1.66,0,1,1,1.65-1.65A1.65,1.65,0,0,1,63.85,80.39Zm3.31,5a1.66,1.66,0,1,1,1.65-1.65A1.66,1.66,0,0,1,67.16,85.35Zm3.31-5a1.66,1.66,0,1,1,1.65-1.65A1.65,1.65,0,0,1,70.47,80.39Zm3.3,5a1.66,1.66,0,1,1,1.66-1.65A1.65,1.65,0,0,1,73.77,85.35Zm3.31-5a1.66,1.66,0,1,1,1.66-1.65A1.65,1.65,0,0,1,77.08,80.39Zm3.31,5A1.66,1.66,0,1,1,82,83.7,1.65,1.65,0,0,1,80.39,85.35Zm3.31-5a1.66,1.66,0,1,1,1.65-1.65A1.65,1.65,0,0,1,83.7,80.39Zm3.31,5a1.66,1.66,0,1,1,1.65-1.65A1.65,1.65,0,0,1,87,85.35Z"/></g></g></svg>