<svg xmlns="http://www.w3.org/2000/svg" viewBox="0 0 59 53.64"><defs><style>.cls-1{fill:#fff;}</style></defs><title>iconAlarm_1</title><g id="Capa_2" data-name="Capa 2"><g id="MEDIOAMBIENTE"><path class="cls-1" d="M49.4,53.64H9.6A9.59,9.59,0,0,1,1.3,39.26L21.2,4.79a9.59,9.59,0,0,1,16.61,0L57.7,39.26a9.59,9.59,0,0,1-8.3,14.38ZM29.5,2.76a6.77,6.77,0,0,0-5.92,3.41L3.69,40.63A6.83,6.83,0,0,0,9.6,50.88H49.4a6.83,6.83,0,0,0,5.92-10.25L35.42,6.17A6.77,6.77,0,0,0,29.5,2.76Zm24,38L34.37,7.56a5.63,5.63,0,0,0-9.74,0L5.45,40.79a5.62,5.62,0,0,0,4.87,8.43H48.69a5.61,5.61,0,0,0,4.86-8.43ZM26,17.93a3.48,3.48,0,0,1,6.95,0V29.2a3.48,3.48,0,1,1-6.95,0Zm3.47,25a3.56,3.56,0,1,1,3.56-3.56A3.57,3.57,0,0,1,29.5,42.93Z"/></g></g></svg>