<svg xmlns="http://www.w3.org/2000/svg" viewBox="0 0 65.17 56.94"><defs><style>.cls-1{fill:#fff;}</style></defs><title>iconHeart</title><g id="Capa_2" data-name="Capa 2"><g id="Personal-General"><path class="cls-1" d="M44.27,46.5c-8.47-.85-8.52-7.22-8.27-9.45a35.9,35.9,0,0,1,6.21,1.24c.55,2.55,4.74,5.09,4.74,5.09a11.78,11.78,0,0,1-3.58-4.83,28.64,28.64,0,0,0,5.29,1.35C50,41.93,53,42.43,53,42.43A9.14,9.14,0,0,1,50,40a13.5,13.5,0,0,0,7.23-1.82A27.29,27.29,0,0,1,50,39a10.6,10.6,0,0,1,3.46-2.1s-3.17.13-4.82,2a26.25,26.25,0,0,1-5-1.45A13.78,13.78,0,0,1,49,34s-5.13.87-6.48,3.18a26.57,26.57,0,0,0-6.31-1.31c.41-7,10-7.19,14-4.65s4.91,4.32,13,4C60.11,42.45,51.18,47.2,44.27,46.5ZM30.64,26.1a14.18,14.18,0,0,1-.51,7l.15,0c8.77-2.7.21-12.68.21-12.68a28.3,28.3,0,0,1-3.41,5.43c-2.36,2.85-2.15,8.3,2.45,7.43A17.18,17.18,0,0,0,30.64,26.1ZM36,37.05s.19-1.18.2-1.17A12.37,12.37,0,0,0,28,37.1a13.62,13.62,0,0,0,2.12-4,4.92,4.92,0,0,1-.61.15,16.69,16.69,0,0,1-3.11,4.46,43.08,43.08,0,0,0-4.25,3.18,1,1,0,0,0,1.42.92C24.16,40.66,30.44,36,36,37.05Z"/><path class="cls-1" d="M65.06,17c-1-9.84-8.36-17-17.64-17a17.79,17.79,0,0,0-15,8.13A17.1,17.1,0,0,0,17.74,0C8.47,0,1.06,7.14.11,17a16.49,16.49,0,0,0,.55,6.45,27.43,27.43,0,0,0,9,14.15L32.39,56.94,55.48,37.58a27.43,27.43,0,0,0,9-14.15A16.61,16.61,0,0,0,65.06,17Zm-3,5.91A25.06,25.06,0,0,1,53.8,35.83L32.4,53.77l-21-17.94A25.08,25.08,0,0,1,3.1,22.89a14.62,14.62,0,0,1-.52-5.54l0-.12C3.41,8.61,9.78,2.36,17.74,2.36a14.68,14.68,0,0,1,13.5,8.85l1.16,2.57,1.15-2.57A15.17,15.17,0,0,1,47.42,2.36c8,0,14.33,6.25,15.16,15A14.36,14.36,0,0,1,62.06,22.89Z"/><path class="cls-1" d="M20.05,7.16c-6.91,0-12.53,5.28-12.53,11.78a1.25,1.25,0,0,0,2.5,0c0-5.2,4.5-9.43,10-9.43a1.18,1.18,0,1,0,0-2.35Z"/></g></g></svg>