<svg xmlns="http://www.w3.org/2000/svg" viewBox="0 0 199.5 43"><defs><style>.cls-1{fill:#ec1c24;stroke:#fff;stroke-miterlimit:10;}.cls-2{fill:#fff;}</style></defs><title>iconRackRed</title><g id="Capa_2" data-name="Capa 2"><g id="Máquinas-RACKS"><path class="cls-1" d="M.5.5v42H199V.5Zm17.75,36A14.25,14.25,0,1,1,32.5,22.25,14.26,14.26,0,0,1,18.25,36.5Z"/><path class="cls-2" d="M198.76,17.73V.5H91.6V17.73h5.25v7.54H91.6V42.5H198.76V25.27H192.7V17.73Zm-88,17.71h-7.45V28.15h7.45Zm0-10.4h-7.45V17.76h7.45Zm0-10.2h-7.45V7.56h7.45Zm11,20.6h-7.45V28.15h7.45Zm0-10.4h-7.45V17.76h7.45Zm0-10.2h-7.45V7.56h7.45Zm10.84,20.6h-7.44V28.15h7.44Zm0-10.4h-7.44V17.76h7.44Zm0-10.2h-7.44V7.56h7.44Zm10.74,20.6h-7.45V28.15h7.45Zm0-10.4h-7.45V17.76h7.45Zm0-10.2h-7.45V7.56h7.45Zm11,20.6h-7.45V28.15h7.45Zm0-10.4h-7.45V17.76h7.45Zm0-10.2h-7.45V7.56h7.45Zm10.85,20.6h-7.45V28.15h7.45Zm0-10.4h-7.45V17.76h7.45Zm0-10.2h-7.45V7.56h7.45Zm16.66,20.39h-9.61V30.79h9.61ZM177,22.76a7.68,7.68,0,1,1,7.67-7.67A7.68,7.68,0,0,1,177,22.76ZM181.83,15a4.81,4.81,0,1,1-4.8-4.81A4.81,4.81,0,0,1,181.83,15Z"/><path class="cls-2" d="M40.63,9.64c-1.2,0-2.17,1.73-2.17,3.86V32.79c0,2.13,1,3.85,2.17,3.85s2.17-1.72,2.17-3.85V13.5C42.8,11.37,41.83,9.64,40.63,9.64Z"/><path class="cls-2" d="M50.17,36.64c1.2,0,2.17-1.72,2.17-3.85V13.5c0-2.13-1-3.86-2.17-3.86S48,11.37,48,13.5V32.79C48,34.92,49,36.64,50.17,36.64Z"/><path class="cls-2" d="M59.71,36.64c1.2,0,2.17-1.72,2.17-3.85V13.5c0-2.13-1-3.86-2.17-3.86s-2.17,1.73-2.17,3.86V32.79C57.54,34.92,58.51,36.64,59.71,36.64Z"/><path class="cls-2" d="M69.25,36.64c1.2,0,2.17-1.72,2.17-3.85V13.5c0-2.13-1-3.86-2.17-3.86s-2.17,1.73-2.17,3.86V32.79C67.08,34.92,68.05,36.64,69.25,36.64Z"/><path class="cls-2" d="M78.79,36.64c1.2,0,2.17-1.72,2.17-3.85V13.5c0-2.13-1-3.86-2.17-3.86s-2.17,1.73-2.17,3.86V32.79C76.62,34.92,77.59,36.64,78.79,36.64Z"/><path class="cls-2" d="M23.44,29.16a4.5,4.5,0,0,1-4.63,4.35,4.51,4.51,0,0,1-4.64-4.35,4.28,4.28,0,0,1,2.29-3.75V12.32a2.35,2.35,0,0,1,4.69,0V25.41A4.28,4.28,0,0,1,23.44,29.16Zm-.91,0a3.47,3.47,0,0,0-2-3.12l-.25-.11V12.32a1.43,1.43,0,0,0-2.86,0V25.93l-.25.11a3.48,3.48,0,0,0-2,3.12,3.61,3.61,0,0,0,3.72,3.49A3.61,3.61,0,0,0,22.53,29.16Zm-.77,0a3,3,0,0,1-5.91,0,2.8,2.8,0,0,1,2.2-2.68l.17,0V18.82H19.4v7.61l.17.05A2.8,2.8,0,0,1,21.76,29.16ZM19,27.31a.58.58,0,0,0-.7-.42,2.33,2.33,0,0,0-1.91,2.24.6.6,0,0,0,1.19,0,1.21,1.21,0,0,1,1-1.16A.55.55,0,0,0,19,27.31Z"/></g></g></svg>