<svg xmlns="http://www.w3.org/2000/svg" xmlns:xlink="http://www.w3.org/1999/xlink" viewBox="0 0 61.01 55.71"><defs><style>.cls-1,.cls-3,.cls-4{fill:none;}.cls-2{fill:url(#Degradado_sin_nombre_147);}.cls-3,.cls-4{stroke:#fff;stroke-miterlimit:10;}.cls-4{stroke-linecap:round;stroke-width:4px;}.cls-5{fill:#fff;}.cls-6{clip-path:url(#clip-path);}</style><linearGradient id="Degradado_sin_nombre_147" x1="9.11" y1="30.32" x2="51.91" y2="30.32" gradientUnits="userSpaceOnUse"><stop offset="0.09" stop-color="#f6921e"/><stop offset="0.84" stop-color="#f05a24"/></linearGradient><clipPath id="clip-path"><rect class="cls-1" x="10.59" y="10.91" width="39.03" height="39.11"/></clipPath></defs><title>iconNormal</title><g id="Capa_2" data-name="Capa 2"><g id="Personal-General"><circle class="cls-2" cx="30.51" cy="30.32" r="21.4"/><circle class="cls-3" cx="30.51" cy="30.32" r="24.88"/><path class="cls-4" d="M59,30.51A28.51,28.51,0,1,0,9.5,49.78"/><path class="cls-5" d="M40.42,38.1H20.65a.93.93,0,0,1,0-1.85H40.42a.93.93,0,1,1,0,1.85Z"/><path class="cls-5" d="M40.42,26.36H34.86a.93.93,0,1,1,0-1.85h5.56a.93.93,0,1,1,0,1.85Z"/><g class="cls-6"><path class="cls-5" d="M26.83,26.36H20.65a.93.93,0,0,1,0-1.85h6.18a.93.93,0,1,1,0,1.85Z"/><path class="cls-5" d="M30.1,49.94A19.52,19.52,0,1,1,49.62,30.42,19.54,19.54,0,0,1,30.1,49.94Zm0-37.18A17.67,17.67,0,1,0,47.76,30.42,17.68,17.68,0,0,0,30.1,12.76Z"/></g></g></g></svg>