<svg xmlns="http://www.w3.org/2000/svg" viewBox="0 0 42.29 40"><defs><style>.cls-1{fill:#fff;}</style></defs><title>iconFilter</title><g id="Capa_2" data-name="Capa 2"><g id="MEDIOAMBIENTE"><path class="cls-1" d="M36.8,28c.36.38.68.72,1,1a10.44,10.44,0,0,0,.92.83,1.5,1.5,0,0,0,.72.41c.28,0,.83-.41,1.66-1.24s1.23-1.37,1.23-1.65-.24-.48-.72-1-1.09-1.21-1.83-2-1.47-1.48-2.18-2.16-1.39-1.36-2.06-2l-1.15-1.12a.79.79,0,0,0-.58-.25c-.29,0-.84.41-1.66,1.23s-1.23,1.37-1.23,1.66a1.39,1.39,0,0,0,.4.71c.27.33.55.64.83.92s.62.61,1,1l.65.61-2.41,2.42-8.92-8.92a15.21,15.21,0,0,0,3.29-9.17,9,9,0,0,0-2.58-6.67A9,9,0,0,0,16.48,0,14.73,14.73,0,0,0,8.62,2.39,19.12,19.12,0,0,0,2.39,8.62,14.73,14.73,0,0,0,0,16.48a9,9,0,0,0,2.58,6.67,9,9,0,0,0,6.67,2.58,15.21,15.21,0,0,0,9.17-3.29L35.28,39.3A2.31,2.31,0,0,0,37,40a3.42,3.42,0,0,0,3-3,2.29,2.29,0,0,0-.7-1.7l-5.53-5.53,2.41-2.41C36.23,27.39,36.44,27.6,36.8,28Zm-15.15-14-.07.1-.85.8-1,.9-.15.1-.16,0-.91-.29-.24-.11L17.39,15l-.22-.12-.85-.41-.23-.11L15.21,14l-.24-.1-.84-.4L14,13.41l0,0,.06.16.41.85.11.24.29.88.11.24.46.85.11.23.42.84L16,18l.38.85.07.2-.07.2-.82.7-.2.2-.7.82-.18.05-.19-.1-1-.32L13,20.46l-.87-.53-.25-.12-1-.39-.26-.11-.92-.4-.26-.14-.91-.49-.25-.12-2.16-.94-.26-.11L5,16.64l-.29-.11-.94-.33-.28-.1-1-.42-.16-.14v-.16l.1-.17L2.59,15l.52-.45.19-.19.87-.84.66-.67L5,12.74h.1l.15.1,1.1.53.24.12,1,.54.24.12,1.06.42.25.13,1,.5.23.16.92.63.16.06.09-.06,0-.17L11.14,15,11,14.74l-.5-.81-.13-.23L10,12.91l-.14-.23-.43-.85-.12-.23-.44-.83-.11-.24-.35-.71L8.3,9.63V9.51l.12-.16L9,8.69l.17-.2.29-.26.18-.18.2-.18L10,7.8l.2,0,.13.06.25.1.48.21.23.11.83.45.22.13.84.44.22.12.8.51.23.11.9.31.23.12.32.25.23.16.23.13.18,0,.06-.09-.08-.2-.56-.86-.14-.23-.16-.36-.12-.25-.17-.37-.14-.25-.46-.71-.13-.25-.35-.77-.11-.26-.32-.78-.12-.25-.34-.59-.1-.2,0-.16.13-.17.7-.6.2-.2.62-.7.2-.2.7-.6.14-.14H16l.11.13,1,2.15.11.25.48.9.11.26.39,1,.13.24.49.89.12.27.33,1,.13.27.5.9.13.25.35,1,.13.25.46.91.14.26.48.9.07.17Z"/></g></g></svg>