<svg xmlns="http://www.w3.org/2000/svg" xmlns:xlink="http://www.w3.org/1999/xlink" viewBox="0 0 63 55"><defs><style>.cls-1{stroke:#0042ff;fill:url(#Degradado_sin_nombre_39);}.cls-1,.cls-2{stroke-miterlimit:10;}.cls-2{fill:none;stroke:#fff;stroke-width:2px;fill-rule:evenodd;}</style><linearGradient id="Degradado_sin_nombre_39" x1="0.5" y1="27.5" x2="62.5" y2="27.5" gradientUnits="userSpaceOnUse"><stop offset="0.06" stop-color="#0100cf"/><stop offset="1" stop-color="#0085e6"/></linearGradient></defs><title>iconHumedad</title><g id="Capa_2" data-name="Capa 2"><g id="MEDIOAMBIENTE"><rect class="cls-1" x="0.5" y="0.5" width="62" height="54"/><path class="cls-2" d="M19.23,33.3c0,6.75,5.19,12.22,11.6,12.22s11.6-5.47,11.6-12.22S33.58,21,32.7,9.39V9A1.87,1.87,0,1,0,29,9v.4C28.21,19,19.23,24.65,19.23,33.3Zm13.21,5a4.75,4.75,0,0,0,3.28-3.5,1.54,1.54,0,0,1,1.47-1.32,1.55,1.55,0,0,1,1.5,1.6,7.39,7.39,0,0,1-2.14,4.23,6,6,0,0,1-3.85,2.2,1.63,1.63,0,0,1-.26-3.21Z"/></g></g></svg>