<svg xmlns="http://www.w3.org/2000/svg" viewBox="0 0 29.53 34.57"><defs><style>.cls-1{fill:#fff;}</style></defs><title>iconEuro</title><g id="Capa_2" data-name="Capa 2"><g id="MEDIOAMBIENTE"><path class="cls-1" d="M29.37,30.82c-.38-.95-.78-1.9-1.21-2.83a1.34,1.34,0,0,0-1.78-.87c-1.16.26-2.29.62-3.45.85a13,13,0,0,1-6.67-.18c-2.76-.87-4.24-2.87-5.14-5.46h7.49a1.06,1.06,0,0,0,1.07-1.06V18.91a1.07,1.07,0,0,0-1.07-1.07H10.4c0-.66,0-1.29,0-1.92h8.21a1.06,1.06,0,0,0,1.07-1.06V12.5a1.07,1.07,0,0,0-1.07-1.07H11.44a.17.17,0,0,1,0-.07A7.64,7.64,0,0,1,15.63,7a12.49,12.49,0,0,1,7.31-.41c1.17.23,2.32.59,3.49.86a1.32,1.32,0,0,0,1.72-.86c.42-.92.81-1.85,1.2-2.79a1.41,1.41,0,0,0-.69-2A3.15,3.15,0,0,0,28,1.51,20.22,20.22,0,0,0,17.31.24a15.37,15.37,0,0,0-7.1,2.93,15.53,15.53,0,0,0-5.34,7.9l-.12.36H1.06A1.06,1.06,0,0,0,0,12.5v2.36a1.05,1.05,0,0,0,1.06,1.06H4v1.92H1.06A1.06,1.06,0,0,0,0,18.91v2.36a1.05,1.05,0,0,0,1.06,1.06H4.57c.26.86.48,1.74.82,2.56a14.55,14.55,0,0,0,9.22,8.78,19.08,19.08,0,0,0,11.15.13,18.31,18.31,0,0,0,2.85-1A1.35,1.35,0,0,0,29.37,30.82Z"/></g></g></svg>