<svg xmlns="http://www.w3.org/2000/svg" viewBox="0 0 50.81 51.5"><defs><style>.cls-1{fill:none;stroke:#fff;stroke-miterlimit:10;}.cls-2{fill:#fccb9a;}.cls-3{fill:#fbbb84;}.cls-4{fill:#3b2519;}.cls-5{fill:#fff;}.cls-6{fill:#85461b;}.cls-7{fill:#f6935e;}.cls-8{fill:#d48d64;}.cls-9{fill:#be805a;}.cls-10{fill:#744a25;}.cls-11{fill:#573514;}</style></defs><title>iconUsuariologged</title><g id="Capa_2" data-name="Capa 2"><g id="MEDIOAMBIENTE"><rect class="cls-1" x="0.5" y="0.5" width="49.81" height="50.5"/><rect class="cls-2" x="21.14" y="39.25" width="6.38" height="7.14"/><path class="cls-3" d="M21.14,40.09a10.65,10.65,0,0,0,6.37,1.31V39.25H21.14Z"/><ellipse class="cls-3" cx="11.94" cy="28.18" rx="3.11" ry="3.55"/><ellipse class="cls-3" cx="36.71" cy="28.18" rx="3.11" ry="3.55"/><path class="cls-2" d="M36.69,21.4c0-5.23-3.82-9-12.36-9S12,16.17,12,21.4s-.9,19,12.37,19S36.69,26.63,36.69,21.4Z"/><ellipse class="cls-4" cx="18.3" cy="27.33" rx="1.34" ry="1.47"/><circle class="cls-5" cx="17.72" cy="26.68" r="0.4"/><path class="cls-6" d="M16.16,23.69c.63.32,1.65-1.07,4,.14.42.22.67-1.89-1.82-1.89C16.16,21.94,15.78,23.5,16.16,23.69Z"/><ellipse class="cls-4" cx="30.51" cy="27.33" rx="1.34" ry="1.47"/><circle class="cls-5" cx="29.93" cy="26.68" r="0.4"/><path class="cls-6" d="M32.49,23.69c-.63.32-1.65-1.07-4,.14-.42.22-.67-1.89,1.82-1.89C32.49,21.94,32.87,23.5,32.49,23.69Z"/><path class="cls-3" d="M24.33,32.48c-1.33,0-2.12-1-2.12-.51s.38,1.39,2.12,1.39,2.12-.91,2.12-1.39S25.65,32.48,24.33,32.48Z"/><path class="cls-3" d="M24.33,36.88c-.46,0-.74-.34-.74-.17s.13.47.74.47.73-.31.73-.47S24.78,36.88,24.33,36.88Z"/><path class="cls-7" d="M24.33,35.66c-2.1,0-3.37-.85-3.37-.63s.61,1.06,3.37,1.06,3.36-.85,3.36-1.06S26.42,35.66,24.33,35.66Z"/><path class="cls-8" d="M24.33,42.12v8H8.83C8.83,46.9,17,42.12,24.33,42.12Z"/><path class="cls-8" d="M24.33,42.12v8H39.82C39.82,46.9,31.66,42.12,24.33,42.12Z"/><path class="cls-9" d="M24.33,42.12a20.46,20.46,0,0,0-4.71.59,6.33,6.33,0,0,0,4.71,2.21,7,7,0,0,0,4.87-2.17A20.27,20.27,0,0,0,24.33,42.12Z"/><path class="cls-2" d="M21.14,42.4a4.11,4.11,0,0,0,3.18,1.15,4.12,4.12,0,0,0,3.19-1.15A10,10,0,0,0,21.14,42.4Z"/><path class="cls-6" d="M24.32,37.67v3c-6.66,0-8.86-3.56-9.51-4.55-.48-.73,3.14,2.59,6.33,2.59C22.54,38.68,22.48,37.67,24.32,37.67Z"/><path class="cls-6" d="M24.32,37.67v3c6.67,0,8.87-3.56,9.52-4.55.48-.73-3.14,2.59-6.33,2.59C26.11,38.68,26.17,37.67,24.32,37.67Z"/><path class="cls-6" d="M24.41,18V7.5c-10.92,0-13,4.08-13.47,11.73s.64,10.28,1.4,10.27.35-8.77,1.4-10.65C15.65,15.41,19.07,18,24.41,18Z"/><path class="cls-6" d="M24.41,18V7.5c10.92,0,13,4.08,13.47,11.73s-.64,10.28-1.4,10.27-.36-8.77-1.4-10.65C33.16,15.41,29.74,18,24.41,18Z"/><path class="cls-10" d="M17.53,43.31c-4.81,1.63-8.7,4.6-8.7,6.84h8.7V43.31Z"/><path class="cls-11" d="M18,50.15V42.82s-1.25.48-1.68.7l-1.26,6.63Z"/><path class="cls-10" d="M31.12,43.31c4.81,1.63,8.7,4.6,8.7,6.84h-8.7V43.31Z"/><path class="cls-11" d="M30.65,50.15V42.82s1.25.48,1.68.7l1.26,6.63Z"/></g></g></svg>