<svg xmlns="http://www.w3.org/2000/svg" xmlns:xlink="http://www.w3.org/1999/xlink" viewBox="0 0 61.01 55.71"><defs><style>.cls-1{fill:url(#Degradado_sin_nombre_143);}.cls-2,.cls-3{fill:none;stroke:#fff;stroke-miterlimit:10;}.cls-3{stroke-linecap:round;stroke-width:4px;}.cls-4{fill:#fff;}</style><linearGradient id="Degradado_sin_nombre_143" x1="9.11" y1="30.32" x2="51.91" y2="30.32" gradientUnits="userSpaceOnUse"><stop offset="0.09" stop-color="#cf0011"/><stop offset="0.91" stop-color="#e62d00"/></linearGradient></defs><title>iconSad</title><g id="Capa_2" data-name="Capa 2"><g id="Personal-General"><circle class="cls-1" cx="30.51" cy="30.32" r="21.4"/><circle class="cls-2" cx="30.51" cy="30.32" r="24.88"/><path class="cls-3" d="M59,30.51A28.5,28.5,0,1,0,9.5,49.78"/><path class="cls-4" d="M29.71,32.46h3.35A7.49,7.49,0,0,1,40.69,40a.93.93,0,1,1-1.86,0,5.65,5.65,0,0,0-5.77-5.65H29.71A5.59,5.59,0,0,0,24,39.84a.93.93,0,0,1-1.86,0,7.42,7.42,0,0,1,7.62-7.38Z"/><path class="cls-4" d="M27,25.42a.92.92,0,0,1-.66-.28,2.27,2.27,0,0,0-3.18-.06.93.93,0,1,1-1.31-1.32,4.15,4.15,0,0,1,5.81.07.93.93,0,0,1,0,1.31.9.9,0,0,1-.66.28Z"/><path class="cls-4" d="M39.67,25.42a.9.9,0,0,1-.65-.28,2.29,2.29,0,0,0-3.19-.06.93.93,0,1,1-1.31-1.32,4.15,4.15,0,0,1,5.81.07.91.91,0,0,1,0,1.31.9.9,0,0,1-.66.28Z"/><path class="cls-4" d="M30.65,49.91A19.32,19.32,0,1,1,50,30.59,19.34,19.34,0,0,1,30.65,49.91Zm0-36.78A17.46,17.46,0,1,0,48.1,30.59,17.47,17.47,0,0,0,30.65,13.13Z"/></g></g></svg>