<svg xmlns="http://www.w3.org/2000/svg" viewBox="0 0 59 52.13"><defs><style>.cls-1{fill:#fff;}</style></defs><title>iconOK</title><g id="Capa_2" data-name="Capa 2"><g id="Máquinas-RACKS"><path class="cls-1" d="M6.61,26.32A4.86,4.86,0,0,1,13.2,28l6.69,10.86a3,3,0,0,0,2.59,1.57,3,3,0,0,0,2.83-2.33C29.06,24.84,41.22,10.82,50.7,1.43A4.86,4.86,0,0,1,59,4.87v7.72a4.84,4.84,0,0,1-2,3.95c-8.53,6.07-24.13,23.73-32.82,33.89a4.85,4.85,0,0,1-7,.36c-4.53-4.31-10.65-9.86-15.5-14.21a4.87,4.87,0,0,1,.81-7.82Z"/></g></g></svg>