<svg xmlns="http://www.w3.org/2000/svg" xmlns:xlink="http://www.w3.org/1999/xlink" viewBox="0 0 144.49 143.44"><defs><style>.cls-1{opacity:0.53;fill:url(#Degradado_sin_nombre_87);}.cls-2{fill:#fff;}.cls-3,.cls-4{fill:none;stroke-miterlimit:10;}.cls-3{stroke:#f0f0f0;stroke-width:4px;}.cls-4{stroke:#71f300;stroke-width:7px;}.cls-5{fill:#8bc53f;}</style><linearGradient id="Degradado_sin_nombre_87" y1="71.72" x2="144.49" y2="71.72" gradientUnits="userSpaceOnUse"><stop offset="0.14" stop-color="#347000"/><stop offset="0.93" stop-color="#29ac00"/></linearGradient></defs><title>iconServersCOLOR</title><g id="Capa_2" data-name="Capa 2"><g id="Máquinas-SERVIDORES"><ellipse class="cls-1" cx="72.25" cy="71.72" rx="72.25" ry="71.72"/><circle class="cls-2" cx="72.12" cy="71.79" r="48.5"/><circle class="cls-3" cx="72.12" cy="71.79" r="56.51"/><path class="cls-4" d="M128.48,71.79a56.37,56.37,0,0,1-112.73,0"/><path class="cls-5" d="M104,85.22H61.22a1.16,1.16,0,0,1-1.16-1.16V57.22a1.16,1.16,0,0,1,1.16-1.16H104a1.16,1.16,0,0,1,1.16,1.16V84.06A1.16,1.16,0,0,1,104,85.22ZM92.17,93.69H87.83V88.47H77.42v5.22H73.08a1.63,1.63,0,0,0,0,3.25H92.17a1.63,1.63,0,0,0,0-3.25ZM65,52.81h-3.8a5.36,5.36,0,0,0-.7.06,1.84,1.84,0,0,0-.41-.06H44a1.63,1.63,0,0,0,0,3.25H57a4.45,4.45,0,0,0-.16,1.16v3H44a1.63,1.63,0,0,0,0,3.25H56.81v4.19H44a1.63,1.63,0,0,0,0,3.25H56.81V84.06a4.42,4.42,0,0,0,4.41,4.41H65v6.85a1.63,1.63,0,0,1-1.63,1.62H40.67A1.63,1.63,0,0,1,39,95.32V48.26a1.63,1.63,0,0,1,1.63-1.63H63.39A1.63,1.63,0,0,1,65,48.26ZM49.52,84.93A2.51,2.51,0,1,0,52,82.42,2.51,2.51,0,0,0,49.52,84.93Z"/></g></g></svg>