<svg xmlns="http://www.w3.org/2000/svg" xmlns:xlink="http://www.w3.org/1999/xlink" viewBox="0 0 111.08 105.07"><defs><style>.cls-1{fill:url(#Degradado_sin_nombre_132);}</style><linearGradient id="Degradado_sin_nombre_132" y1="52.54" x2="111.08" y2="52.54" gradientUnits="userSpaceOnUse"><stop offset="0" stop-color="#009556"/><stop offset="0.16" stop-color="#01935b"/><stop offset="0.34" stop-color="#038d68"/><stop offset="0.53" stop-color="#07847f"/><stop offset="0.73" stop-color="#0c779f"/><stop offset="0.94" stop-color="#1366c8"/><stop offset="0.97" stop-color="#1463d0"/></linearGradient></defs><title>iconFilterCOLOR</title><g id="Capa_2" data-name="Capa 2"><g id="keywords"><path class="cls-1" d="M96.66,73.53c.94,1,1.79,1.89,2.54,2.63a31.77,31.77,0,0,0,2.41,2.18,3.81,3.81,0,0,0,1.88,1.06q1.13,0,4.36-3.24t3.23-4.35c0-.35-.63-1.25-1.88-2.71s-2.86-3.16-4.82-5.15-3.86-3.87-5.71-5.67S95,54.73,93.26,53s-2.77-2.67-3-2.94a2.1,2.1,0,0,0-1.51-.65c-.75,0-2.2,1.07-4.36,3.23S81.12,56.28,81.12,57a3.83,3.83,0,0,0,1,1.89c.71.85,1.43,1.66,2.18,2.41S86,62.91,87,63.86l1.72,1.61-6.34,6.34L58.94,48.38q8.64-11.61,8.65-24.09,0-10.75-6.77-17.52T43.3,0A38.72,38.72,0,0,0,22.64,6.27,50.22,50.22,0,0,0,6.27,22.64,38.72,38.72,0,0,0,0,43.3Q0,54.06,6.77,60.82t17.52,6.77q12.48,0,24.09-8.65l44.29,44.29a6.09,6.09,0,0,0,4.48,1.84,9,9,0,0,0,7.93-7.92,6.14,6.14,0,0,0-1.85-4.49L88.71,78.14,95,71.81C95.17,71.94,95.71,72.51,96.66,73.53ZM56.88,36.63l-.19.26L54.45,39l-2.68,2.36-.39.26-.42-.1-2.39-.77L48,40.45l-2.26-1.1L45.11,39,42.87,38l-.61-.3-2.3-1-.64-.26-2.2-1-.46-.13-.09.1.16.42L37.79,38l.3.61.77,2.33.29.62,1.2,2.23.29.61,1.1,2.2.26.65,1,2.23.2.52-.2.52-2.16,1.84-.52.52L38.47,55l-.45.13-.52-.25-2.65-.85-.65-.32-2.29-1.39L31.26,52l-2.62-1L28,50.73l-2.43-1.06-.67-.36L22.46,48l-.65-.33-5.69-2.46-.68-.29-2.39-1.23-.75-.29-2.49-.87-.71-.26-2.59-1.1-.42-.36,0-.42L6.32,40l.49-.48,1.35-1.17.52-.52L11,35.59l1.74-1.74.46-.39h.25l.39.26,2.88,1.39.65.32L20,36.86l.64.32,2.78,1.1.65.32,2.62,1.33.62.42L29.77,42l.42.16.23-.16-.07-.45-1.1-2.2L29,38.73,27.67,36.6,27.31,36l-1.1-2.07-.35-.61-1.13-2.23-.33-.59-1.16-2.2L23,27.67,22,25.79l-.23-.48V25l.3-.42,1.48-1.74.46-.52.74-.68.49-.49.51-.45.46-.19.51.13.36.16.65.26,1.26.55.61.29,2.17,1.2.58.32,2.2,1.16.58.33,2.11,1.32.61.29,2.36.81.59.33.84.64.61.42.62.36.45.06.16-.22-.19-.52-1.49-2.26-.36-.62-.42-.94-.32-.64-.45-1-.36-.68-1.2-1.85-.35-.68-.91-2-.29-.68L36.34,15,36,14.34l-.91-1.55-.26-.52,0-.42.32-.45L37,9.81l.51-.52,1.65-1.84.52-.52,1.84-1.58L41.87,5l.23,0,.29.36,2.52,5.62.29.68L46.46,14l.3.67,1,2.59.32.65,1.3,2.33.32.71.87,2.49.33.71,1.32,2.36.33.65.94,2.62.32.65,1.23,2.39.35.68,1.27,2.36.19.46Z"/></g></g></svg>