<svg xmlns="http://www.w3.org/2000/svg" viewBox="0 0 40.41 40"><defs><style>.cls-1{fill:#fff;}</style></defs><title>iconConfig</title><g id="Capa_2" data-name="Capa 2"><g id="MEDIOAMBIENTE"><path class="cls-1" d="M2.65,14.6a10.39,10.39,0,0,0,.88,2.09L2.47,18a1.1,1.1,0,0,0,.08,1.46l1.83,1.83a1.11,1.11,0,0,0,1.46.08l1.33-1.06a9.19,9.19,0,0,0,2.17.92L9.54,23a1.1,1.1,0,0,0,1.09,1h2.59a1.11,1.11,0,0,0,1.09-1l.19-1.66a9.34,9.34,0,0,0,2.32-.94l1.29,1a1.1,1.1,0,0,0,1.46-.08l1.83-1.83A1.1,1.1,0,0,0,21.48,18l-1-1.27a9.42,9.42,0,0,0,1-2.29L23,14.3a1.1,1.1,0,0,0,1-1.09V10.62a1.1,1.1,0,0,0-1-1.09l-1.52-.17a9.57,9.57,0,0,0-.92-2.27l.94-1.18a1.11,1.11,0,0,0-.09-1.46L19.57,2.63a1.1,1.1,0,0,0-1.46-.09L17,3.46a9.24,9.24,0,0,0-2.38-1L14.41,1a1.1,1.1,0,0,0-1.09-1H10.73A1.09,1.09,0,0,0,9.65,1L9.47,2.46A9.37,9.37,0,0,0,7,3.49l-1.19-1a1.11,1.11,0,0,0-1.46.09L2.55,4.46a1.09,1.09,0,0,0-.08,1.45l1,1.26a9.41,9.41,0,0,0-.9,2.29L1,9.64a1.1,1.1,0,0,0-1,1.09v2.59a1.11,1.11,0,0,0,1,1.09ZM12,7.6a4.28,4.28,0,1,1-4.28,4.28A4.28,4.28,0,0,1,12,7.6Z"/><path class="cls-1" d="M37.62,15.24l-1.37-1.16a1.1,1.1,0,0,0-1.44,0l-.75.71a8,8,0,0,0-2-.65l-.21-1a1.09,1.09,0,0,0-1.15-.87l-1.78.15a1.1,1.1,0,0,0-1,1.05l0,1.06a7.51,7.51,0,0,0-1.92,1l-.9-.6a1.09,1.09,0,0,0-1.43.2l-1.15,1.38a1.07,1.07,0,0,0,0,1.44l.79.84a7.6,7.6,0,0,0-.58,1.92L21.59,21a1.1,1.1,0,0,0-.87,1.15l.15,1.79a1.1,1.1,0,0,0,1.05,1l1.22,0A8.1,8.1,0,0,0,24,26.57l-.68,1a1.08,1.08,0,0,0,.2,1.43l1.37,1.15a1.07,1.07,0,0,0,1.44,0l.89-.83a8,8,0,0,0,1.83.59l.25,1.23a1.09,1.09,0,0,0,1.15.86l1.79-.15a1.09,1.09,0,0,0,1-1l0-1.2a7.89,7.89,0,0,0,1.83-.93l1,.65a1.07,1.07,0,0,0,1.42-.2l1.15-1.37a1.07,1.07,0,0,0,0-1.43l-.8-.85a7.66,7.66,0,0,0,.63-1.93l1.08-.22a1.1,1.1,0,0,0,.87-1.15l-.15-1.79a1.1,1.1,0,0,0-1-1l-1.09,0a7.9,7.9,0,0,0-.9-1.79l.59-.89A1.08,1.08,0,0,0,37.62,15.24ZM30.9,25.54a3.5,3.5,0,1,1,3.2-3.79A3.5,3.5,0,0,1,30.9,25.54Z"/><path class="cls-1" d="M8.89,30.33a1.08,1.08,0,0,0-1,1.07l0,1.1a1.07,1.07,0,0,0,.95,1.08l.8.11a6.36,6.36,0,0,0,.58,1.4l-.52.64a1.08,1.08,0,0,0,.06,1.44l.77.78a1.07,1.07,0,0,0,1.44.1l.64-.5a6.12,6.12,0,0,0,1.44.63l.09.84a1.1,1.1,0,0,0,1.07,1h1.09a1.08,1.08,0,0,0,1.09-1l.1-.78a6.57,6.57,0,0,0,1.56-.61l.61.49a1.07,1.07,0,0,0,1.44-.07l.78-.76a1.08,1.08,0,0,0,.1-1.44l-.46-.61a6.35,6.35,0,0,0,.66-1.51l.72-.08a1.08,1.08,0,0,0,1-1.06v-1.1A1.08,1.08,0,0,0,23,30.43l-.71-.09a6.39,6.39,0,0,0-.59-1.52l.44-.53A1.08,1.08,0,0,0,22,26.85l-.77-.79a1.07,1.07,0,0,0-1.43-.1l-.53.41a6.37,6.37,0,0,0-1.58-.69L17.64,25a1.07,1.07,0,0,0-1.06-1h-1.1a1.08,1.08,0,0,0-1.09.94l-.08.68a6.36,6.36,0,0,0-1.64.67l-.54-.45a1.08,1.08,0,0,0-1.44.07l-.79.77a1.09,1.09,0,0,0-.1,1.44l.47.6a5.86,5.86,0,0,0-.62,1.51ZM16,29.09a2.86,2.86,0,1,1-2.89,2.82A2.86,2.86,0,0,1,16,29.09Z"/></g></g></svg>