<svg xmlns="http://www.w3.org/2000/svg" xmlns:xlink="http://www.w3.org/1999/xlink" viewBox="0 0 62 54"><defs><style>.cls-1{fill:url(#Degradado_sin_nombre_35);}.cls-2{fill:#fff;}</style><linearGradient id="Degradado_sin_nombre_35" y1="27" x2="62" y2="27" gradientUnits="userSpaceOnUse"><stop offset="0.06" stop-color="#43008a"/><stop offset="1" stop-color="#ff00c0"/></linearGradient></defs><title>iconRuido</title><g id="Capa_2" data-name="Capa 2"><g id="MEDIOAMBIENTE"><rect class="cls-1" width="62" height="54"/><path class="cls-2" d="M17.11,29.7V44a1.62,1.62,0,0,0,3.24,0V29.7a1.62,1.62,0,0,0-3.24,0Z"/><path class="cls-2" d="M12,45.5h3.57V28.58a2,2,0,0,0,0-.24c0-7.3,6.23-13.23,13.89-13.23S43.38,21,43.38,28.34a1.86,1.86,0,0,0,0,.33V45.5H47a4.46,4.46,0,0,0,4.51-4.41V32.27A4.44,4.44,0,0,0,48.24,28C48.07,18.34,39.73,10.5,29.5,10.5S10.92,18.34,10.75,28A4.41,4.41,0,0,0,7.5,32.27v8.82A4.46,4.46,0,0,0,12,45.5Z"/><path class="cls-2" d="M38.65,29.7V44a1.63,1.63,0,0,0,3.25,0V29.7a1.63,1.63,0,0,0-3.25,0Z"/></g></g></svg>