<svg xmlns="http://www.w3.org/2000/svg" xmlns:xlink="http://www.w3.org/1999/xlink" viewBox="0 0 61.01 55.71"><defs><style>.cls-1,.cls-3,.cls-4{fill:none;}.cls-2{fill:url(#Degradado_sin_nombre_145);}.cls-3,.cls-4{stroke:#fff;stroke-miterlimit:10;}.cls-4{stroke-linecap:round;stroke-width:4px;}.cls-5{fill:#fff;}.cls-6{clip-path:url(#clip-path);}</style><linearGradient id="Degradado_sin_nombre_145" x1="9.11" y1="30.32" x2="51.91" y2="30.32" gradientUnits="userSpaceOnUse"><stop offset="0.09" stop-color="#009145"/><stop offset="0.91" stop-color="#02e600"/></linearGradient><clipPath id="clip-path"><rect class="cls-1" x="11.97" y="12.43" width="37.67" height="37.75"/></clipPath></defs><title>iconHappy</title><g id="Capa_2" data-name="Capa 2"><g id="Personal-General"><circle class="cls-2" cx="30.51" cy="30.32" r="21.4"/><circle class="cls-3" cx="30.51" cy="30.32" r="24.88"/><path class="cls-4" d="M59,30.51A28.51,28.51,0,1,0,9.5,49.78"/><path class="cls-5" d="M32.74,43.33H29.09c-4.51,0-8.18-3.34-8.18-7.46A.89.89,0,0,1,21.8,35H40a.89.89,0,0,1,.89.89c0,4.12-3.67,7.46-8.18,7.46Zm-10-6.56a6.21,6.21,0,0,0,6.31,4.77h3.65a6.23,6.23,0,0,0,6.32-4.77Z"/><path class="cls-5" d="M38.7,31.67h-.12c-.26,0-.95,0-2.92-2.44-.89-1.1-1.95-2.64-1.95-3.67a3.43,3.43,0,0,1,3.42-3.43,2.34,2.34,0,0,1,1.51.71,2.31,2.31,0,0,1,1.5-.71,3.43,3.43,0,0,1,3.42,3.43c0,1-1.06,2.57-2,3.67-2,2.42-2.64,2.44-2.91,2.44Zm-1.6-7.75a1.63,1.63,0,0,0-1.6,1.64c0,.74,2.2,3.53,3.14,4.25.94-.72,3.11-3.51,3.14-4.26a1.65,1.65,0,0,0-1.64-1.63,4,4,0,0,0-.51.44,5.24,5.24,0,0,1-.46.4.87.87,0,0,1-1.06,0c-.15-.11-.3-.25-.47-.4a2.43,2.43,0,0,0-.54-.44Z"/><g class="cls-6"><path class="cls-5" d="M24.34,31.67h-.12c-.26,0-.95,0-2.92-2.44-.89-1.1-1.95-2.64-1.95-3.67a3.43,3.43,0,0,1,3.42-3.43,2.34,2.34,0,0,1,1.51.71,2.29,2.29,0,0,1,1.5-.71,3.43,3.43,0,0,1,3.42,3.43c0,1-1.06,2.57-1.95,3.67-1.95,2.42-2.65,2.44-2.91,2.44Zm-1.61-7.75a1.63,1.63,0,0,0-1.59,1.64c0,.74,2.2,3.53,3.14,4.25.93-.72,3.11-3.51,3.13-4.26a1.64,1.64,0,0,0-1.63-1.63,4,4,0,0,0-.51.44c-.16.15-.32.29-.46.4a.89.89,0,0,1-1.07,0c-.14-.11-.3-.25-.46-.4a2.45,2.45,0,0,0-.55-.44Z"/><path class="cls-5" d="M30.8,50.1A18.84,18.84,0,1,1,49.64,31.26,18.86,18.86,0,0,1,30.8,50.1Zm0-35.89A17.06,17.06,0,1,0,47.85,31.26a17.06,17.06,0,0,0-17-17Z"/></g></g></g></svg>