<svg xmlns="http://www.w3.org/2000/svg" viewBox="0 0 38.32 33.68"><defs><style>.cls-1{fill:#fff;}</style></defs><title>iconTask</title><g id="Capa_2" data-name="Capa 2"><g id="Personal-Marta1-Inicio"><path class="cls-1" d="M15.79,18h6.74v2.25H15.79Z"/><path class="cls-1" d="M31.08,20.21H24.77v1.12a1.12,1.12,0,0,1-1.12,1.12h-9a1.12,1.12,0,0,1-1.12-1.12V20.21H7.23A3.36,3.36,0,0,1,4,17.9L0,5.79V30.31a3.37,3.37,0,0,0,3.37,3.37H35a3.38,3.38,0,0,0,3.37-3.37V5.79l-4,12.11A3.37,3.37,0,0,1,31.08,20.21Z"/><path class="cls-1" d="M23.65,0h-9A3.37,3.37,0,0,0,11.3,3.37V4.49H1.93l4.24,12.7A1.12,1.12,0,0,0,7.23,18h6.32V16.84a1.12,1.12,0,0,1,1.12-1.12h9a1.12,1.12,0,0,1,1.12,1.12V18h6.31a1.12,1.12,0,0,0,1.07-.77l4.23-12.7H27V3.37A3.38,3.38,0,0,0,23.65,0ZM13.55,4.49V3.37a1.12,1.12,0,0,1,1.12-1.12h9a1.12,1.12,0,0,1,1.12,1.12V4.49Z"/></g></g></svg>