<?xml version="1.0" encoding="utf-8"?>
<!-- Generator: Adobe Illustrator 23.0.6, SVG Export Plug-In . SVG Version: 6.00 Build 0)  -->
<svg version="1.1" id="Capa_1" xmlns="http://www.w3.org/2000/svg" xmlns:xlink="http://www.w3.org/1999/xlink" x="0px" y="0px"
	 viewBox="0 0 146.2 157.7" style="enable-background:new 0 0 146.2 157.7;" xml:space="preserve">
<style type="text/css">
	.st0{fill:none;stroke:#8BC53F;stroke-width:12;stroke-miterlimit:10;}
	.st1{enable-background:new    ;}
	.st2{fill:#FFFFFF;}
	.st3{fill:url(#SVGID_1_);}
	.st4{fill:url(#SVGID_2_);}
	.st5{fill:url(#SVGID_3_);}
	.st6{fill:url(#SVGID_4_);}
</style>
<title>iconEnergySaving_2</title>
<g id="FINANZAS">
	<path class="st0" d="M37.7,27.3c-8.7,5.6-16.1,13-21.5,21.8C-3.4,81,6.1,122.5,37.5,141.8s72.8,9.2,92.4-22.6s10.1-73.4-21.3-92.8"
		/>
	<g class="st1">
		<path class="st2" d="M30.2,67.5h-3.6l-0.7,2h-0.5l2.8-7.4h0.5l2.8,7.4H31L30.2,67.5z M30.1,67.1l-1.6-4.4l-1.7,4.4H30.1z"/>
		<path class="st2" d="M37.1,64.2c0.4,0.4,0.6,1.1,0.6,1.9v3.4h-0.5v-3.4c0-0.7-0.2-1.2-0.5-1.6c-0.4-0.4-0.8-0.6-1.4-0.6
			c-0.6,0-1.1,0.2-1.5,0.6c-0.4,0.4-0.6,1-0.6,1.8v3.1h-0.5v-8h0.5v3.7c0.1-0.5,0.4-1,0.8-1.2c0.4-0.3,0.9-0.4,1.4-0.4
			C36.1,63.5,36.6,63.8,37.1,64.2z"/>
		<path class="st2" d="M43.5,63.9c0.4,0.2,0.8,0.6,1,1c0.2,0.5,0.4,1,0.4,1.6c0,0.6-0.1,1.2-0.4,1.6c-0.2,0.5-0.6,0.8-1,1
			s-0.9,0.4-1.5,0.4c-0.5,0-1-0.1-1.5-0.4c-0.4-0.2-0.8-0.6-1-1s-0.4-1-0.4-1.6s0.1-1.1,0.4-1.6s0.6-0.8,1-1
			c0.4-0.2,0.9-0.4,1.5-0.4C42.5,63.6,43,63.7,43.5,63.9z M40.8,64.3c-0.4,0.2-0.7,0.5-0.9,0.9c-0.2,0.4-0.3,0.9-0.3,1.4
			c0,0.6,0.1,1,0.3,1.4c0.2,0.4,0.5,0.7,0.9,0.9c0.4,0.2,0.8,0.3,1.2,0.3c0.4,0,0.8-0.1,1.2-0.3c0.4-0.2,0.7-0.5,0.9-0.9
			s0.3-0.9,0.3-1.4c0-0.6-0.1-1-0.3-1.4c-0.2-0.4-0.5-0.7-0.9-0.9C42.8,64.1,42.4,64,42,64C41.6,64,41.2,64.1,40.8,64.3z"/>
		<path class="st2" d="M47.6,63.9c0.4-0.2,0.9-0.4,1.5-0.4v0.5h-0.2c-0.6,0-1.1,0.2-1.5,0.5c-0.4,0.3-0.6,0.9-0.6,1.6v3.3h-0.5v-5.8
			h0.5V65C47,64.5,47.2,64.1,47.6,63.9z"/>
		<path class="st2" d="M51.4,63.9c0.4-0.2,0.9-0.4,1.5-0.4v0.5h-0.2c-0.6,0-1.1,0.2-1.5,0.5c-0.4,0.3-0.6,0.9-0.6,1.6v3.3h-0.5v-5.8
			h0.5V65C50.8,64.5,51.1,64.1,51.4,63.9z"/>
		<path class="st2" d="M58.1,63.9c0.4,0.2,0.8,0.6,1,1c0.2,0.5,0.4,1,0.4,1.6c0,0.6-0.1,1.2-0.4,1.6c-0.2,0.5-0.6,0.8-1,1
			s-0.9,0.4-1.5,0.4c-0.5,0-1-0.1-1.5-0.4c-0.4-0.2-0.8-0.6-1-1s-0.4-1-0.4-1.6s0.1-1.1,0.4-1.6s0.6-0.8,1-1
			c0.4-0.2,0.9-0.4,1.5-0.4C57.1,63.6,57.6,63.7,58.1,63.9z M55.4,64.3c-0.4,0.2-0.7,0.5-0.9,0.9c-0.2,0.4-0.3,0.9-0.3,1.4
			c0,0.6,0.1,1,0.3,1.4c0.2,0.4,0.5,0.7,0.9,0.9c0.4,0.2,0.8,0.3,1.2,0.3c0.4,0,0.8-0.1,1.2-0.3c0.4-0.2,0.7-0.5,0.9-0.9
			s0.3-0.9,0.3-1.4c0-0.6-0.1-1-0.3-1.4c-0.2-0.4-0.5-0.7-0.9-0.9C57.4,64.1,57,64,56.6,64C56.1,64,55.8,64.1,55.4,64.3z"/>
		<path class="st2" d="M68,64.1c0.4,0.3,0.7,0.8,0.9,1.3v-3.9h0.5v8h-0.5v-1.7c-0.2,0.5-0.5,1-0.9,1.3s-1,0.5-1.6,0.5
			c-0.5,0-1-0.1-1.4-0.4s-0.7-0.6-1-1s-0.4-1-0.4-1.6s0.1-1.1,0.4-1.6s0.6-0.8,1-1s0.9-0.4,1.4-0.4C67,63.6,67.6,63.8,68,64.1z
			 M64.8,64.7c-0.4,0.5-0.7,1.1-0.7,1.9c0,0.8,0.2,1.4,0.6,1.9c0.4,0.5,1,0.7,1.8,0.7c0.5,0,0.9-0.1,1.2-0.3s0.7-0.5,0.9-0.9
			c0.2-0.4,0.3-0.8,0.3-1.4s-0.1-1-0.3-1.3c-0.2-0.4-0.5-0.7-0.9-0.9S67,64,66.5,64C65.8,64,65.2,64.2,64.8,64.7z"/>
		<path class="st2" d="M75.1,68.7c0.4-0.3,0.6-0.7,0.7-1.2h0.5c-0.1,0.6-0.4,1.1-0.9,1.5c-0.5,0.4-1.1,0.6-1.8,0.6
			c-0.6,0-1-0.1-1.5-0.4s-0.8-0.6-1-1c-0.2-0.5-0.4-1-0.4-1.6c0-0.6,0.1-1.1,0.4-1.6s0.6-0.8,1-1s0.9-0.4,1.5-0.4
			c0.6,0,1.1,0.1,1.5,0.4c0.4,0.2,0.7,0.6,0.9,0.9c0.2,0.4,0.3,0.8,0.3,1.3c0,0.2,0,0.4-0.1,0.6h-5c0,0.5,0.1,1,0.3,1.4
			c0.2,0.4,0.5,0.6,0.9,0.8s0.7,0.3,1.1,0.3C74.3,69.2,74.7,69,75.1,68.7z M72.5,64.3c-0.4,0.2-0.6,0.5-0.9,0.8
			c-0.2,0.4-0.3,0.8-0.3,1.4h4.6c0-0.5-0.1-1-0.3-1.4c-0.2-0.4-0.5-0.6-0.8-0.8c-0.4-0.2-0.7-0.3-1.1-0.3
			C73.3,64,72.9,64.1,72.5,64.3z"/>
		<path class="st2" d="M81.3,62.3v3.2h3.1v0.4h-3.1v3.2h3.4v0.4h-3.9v-7.6h3.9v0.4H81.3z"/>
		<path class="st2" d="M90.5,64.2c0.4,0.4,0.6,1.1,0.6,1.9v3.4h-0.5v-3.4c0-0.7-0.2-1.2-0.5-1.6c-0.4-0.4-0.8-0.6-1.4-0.6
			c-0.6,0-1.1,0.2-1.5,0.6c-0.4,0.4-0.6,1-0.6,1.8v3.1h-0.5v-5.8h0.5v1.5c0.1-0.5,0.4-1,0.8-1.2c0.4-0.3,0.9-0.4,1.4-0.4
			C89.5,63.5,90.1,63.8,90.5,64.2z"/>
		<path class="st2" d="M96.9,68.7c0.4-0.3,0.6-0.7,0.7-1.2h0.5c-0.1,0.6-0.4,1.1-0.9,1.5c-0.5,0.4-1.1,0.6-1.8,0.6
			c-0.6,0-1-0.1-1.5-0.4c-0.4-0.2-0.8-0.6-1-1c-0.2-0.5-0.4-1-0.4-1.6c0-0.6,0.1-1.1,0.4-1.6s0.6-0.8,1-1c0.4-0.2,0.9-0.4,1.5-0.4
			c0.6,0,1.1,0.1,1.5,0.4s0.7,0.6,0.9,0.9c0.2,0.4,0.3,0.8,0.3,1.3c0,0.2,0,0.4-0.1,0.6h-5c0,0.5,0.1,1,0.3,1.4s0.5,0.6,0.9,0.8
			c0.3,0.2,0.7,0.3,1.1,0.3C96,69.2,96.4,69,96.9,68.7z M94.2,64.3c-0.4,0.2-0.6,0.5-0.9,0.8S93,65.9,93,66.4h4.6
			c0-0.5-0.1-1-0.3-1.4s-0.5-0.6-0.8-0.8S95.8,64,95.4,64C95,64,94.6,64.1,94.2,64.3z"/>
		<path class="st2" d="M100.9,63.9c0.4-0.2,0.9-0.4,1.5-0.4v0.5h-0.2c-0.6,0-1.1,0.2-1.5,0.5s-0.6,0.9-0.6,1.6v3.3h-0.5v-5.8h0.5V65
			C100.2,64.5,100.5,64.1,100.9,63.9z"/>
		<path class="st2" d="M107.5,64.1c0.4,0.3,0.7,0.8,0.9,1.3v-1.7h0.5v6c0,0.5-0.1,1-0.3,1.4s-0.6,0.7-1,0.9s-0.9,0.3-1.3,0.3
			c-0.7,0-1.3-0.2-1.8-0.5s-0.8-0.8-1-1.4h0.5c0.1,0.5,0.4,0.9,0.8,1.1c0.4,0.3,0.9,0.4,1.5,0.4c0.4,0,0.8-0.1,1.1-0.3
			c0.3-0.2,0.6-0.4,0.8-0.8c0.2-0.3,0.3-0.7,0.3-1.2v-1.9c-0.2,0.5-0.5,1-0.9,1.3c-0.4,0.3-1,0.5-1.6,0.5c-0.5,0-1-0.1-1.4-0.4
			s-0.7-0.6-1-1c-0.2-0.5-0.4-1-0.4-1.6s0.1-1.1,0.4-1.6c0.2-0.5,0.6-0.8,1-1s0.9-0.4,1.4-0.4C106.5,63.6,107.1,63.8,107.5,64.1z
			 M104.3,64.7c-0.4,0.5-0.7,1.1-0.7,1.9c0,0.8,0.2,1.4,0.6,1.9c0.4,0.5,1,0.7,1.8,0.7c0.5,0,0.9-0.1,1.2-0.3s0.7-0.5,0.9-0.9
			c0.2-0.4,0.3-0.8,0.3-1.4s-0.1-1-0.3-1.3c-0.2-0.4-0.5-0.7-0.9-0.9S106.5,64,106,64C105.3,64,104.7,64.2,104.3,64.7z"/>
		<path class="st2" d="M111.1,63.7v5.8h-0.5v-5.8H111.1z M112.8,61.8l-2.1,1.4v-0.4l2.1-1.4V61.8z"/>
		<path class="st2" d="M117,64.1c0.4,0.3,0.7,0.8,0.9,1.3v-1.7h0.5v5.8h-0.5v-1.7c-0.2,0.5-0.5,1-0.9,1.3c-0.4,0.3-1,0.5-1.6,0.5
			c-0.5,0-1-0.1-1.4-0.4s-0.7-0.6-1-1c-0.2-0.5-0.4-1-0.4-1.6s0.1-1.1,0.4-1.6c0.2-0.5,0.6-0.8,1-1s0.9-0.4,1.4-0.4
			C116.1,63.6,116.6,63.8,117,64.1z M113.8,64.7c-0.4,0.5-0.7,1.1-0.7,1.9c0,0.8,0.2,1.4,0.6,1.9c0.4,0.5,1,0.7,1.8,0.7
			c0.5,0,0.9-0.1,1.2-0.3s0.7-0.5,0.9-0.9c0.2-0.4,0.3-0.8,0.3-1.4s-0.1-1-0.3-1.3s-0.5-0.7-0.9-0.9S116,64,115.5,64
			C114.8,64,114.2,64.2,113.8,64.7z"/>
	</g>
	
		<linearGradient id="SVGID_1_" gradientUnits="userSpaceOnUse" x1="-514.492" y1="-256.8938" x2="-514.492" y2="-245.5438" gradientTransform="matrix(0.98 0.21 0.21 -0.98 640.3322 -115.2199)">
		<stop  offset="3.000000e-02" style="stop-color:#107238"/>
		<stop  offset="0.98" style="stop-color:#81BE3E"/>
	</linearGradient>
	<path class="st3" d="M84.1,27.3c-2.2,0-4-1.9-3.9-4.1c0-0.2,0-0.4,0.1-0.6c1,0.1,2,0.3,2.9,0.6c0.3,1.3,2.2,2.5,2.2,2.5
		c-0.8-0.6-1.3-1.5-1.7-2.4c0.8,0.3,1.6,0.5,2.5,0.7c0.5,0.6,1.2,1.1,2,1.3c-0.5-0.3-1-0.7-1.4-1.2c1.2,0,2.4-0.3,3.4-0.9
		c-1.1,0.3-2.2,0.4-3.4,0.4c0.5-0.4,1-0.8,1.6-1c-0.8,0-1.6,0.4-2.2,1c-0.8-0.2-1.6-0.4-2.3-0.7c0.7-0.8,1.6-1.4,2.5-1.7
		c0,0-2.4,0.4-3,1.6c-0.9-0.4-1.9-0.6-2.9-0.7c0.2-3.5,4.6-3.6,6.5-2.3s2.3,2.1,6.1,2C91.4,25.3,87.3,27.6,84.1,27.3z M77.7,17.2
		c0.2,1.2,0.1,2.4-0.2,3.5h0.1c4.1-1.3,0.1-6.3,0.1-6.3c-0.4,0.9-1,1.8-1.6,2.6c-1.1,1.4-1,4.1,1.1,3.7
		C77.6,19.6,77.8,18.4,77.7,17.2z M80.2,22.6c0,0,0.1-0.6,0.1-0.6c-1.3-0.3-2.7,0-3.8,0.6c0.4-0.6,0.8-1.3,1-2l-0.3,0.1
		c-0.4,0.8-0.9,1.6-1.4,2.2c-0.7,0.5-1.4,1-2,1.6c0,0,0,0.7,0.7,0.5C74.7,24.4,77.6,22.1,80.2,22.6z"/>
	
		<linearGradient id="SVGID_2_" gradientUnits="userSpaceOnUse" x1="62.4718" y1="121.0337" x2="80.1782" y2="138.74" gradientTransform="matrix(1 0 0 -1 0 159.2756)">
		<stop  offset="9.000000e-02" style="stop-color:#8BC53F"/>
		<stop  offset="0.94" style="stop-color:#006837"/>
	</linearGradient>
	<path class="st4" d="M77.2,38.7c0,3.3-2.6,5.9-5.9,5.9c-3.3,0-5.9-2.6-5.9-5.9c0-2.1,1.1-4,2.9-5.1V15.9c0-1.7,1.3-3,3-3s3,1.3,3,3
		v17.7C76.1,34.7,77.2,36.7,77.2,38.7z M76.1,38.7c0-1.8-1-3.4-2.6-4.2l-0.3-0.2V15.9c-0.1-1-1-1.8-2-1.7c-0.9,0.1-1.6,0.8-1.7,1.7
		v18.4l-0.3,0.2c-2.3,1.2-3.3,4-2.1,6.4c1.2,2.3,4,3.3,6.4,2.1C75,42.2,76,40.5,76.1,38.7z M75.1,38.7c0,2.1-1.7,3.8-3.8,3.8
		c-2.1,0-3.8-1.7-3.8-3.8c0-1.7,1.1-3.2,2.8-3.7l0.2-0.1V24.7H72v10.3l0.2,0.1C73.9,35.5,75.1,37,75.1,38.7L75.1,38.7z M71.5,36.2
		c-0.1-0.4-0.5-0.7-0.9-0.6c0,0,0,0,0,0c-1.4,0.3-2.4,1.6-2.4,3c0,0.4,0.3,0.8,0.8,0.8s0.8-0.3,0.8-0.8c0-0.7,0.5-1.4,1.3-1.6
		C71.3,37,71.6,36.6,71.5,36.2z"/>
	
		<linearGradient id="SVGID_3_" gradientUnits="userSpaceOnUse" x1="44.6944" y1="132.9006" x2="101.4241" y2="132.9006" gradientTransform="matrix(1 0 0 -1 0 159.2756)">
		<stop  offset="9.000000e-02" style="stop-color:#8BC53F"/>
		<stop  offset="0.94" style="stop-color:#006837"/>
	</linearGradient>
	<path class="st5" d="M101.3,15.7C100.5,6.6,94.1,0,86,0c-5.4,0-10.4,2.9-13.1,7.5C70.3,2.9,65.4,0,60.1,0
		c-8.1,0-14.5,6.6-15.3,15.7c-0.2,2-0.1,4,0.5,6c1.2,5.1,4,9.6,7.9,13.1l19.8,17.9L93,34.8c3.9-3.5,6.6-8,7.8-13.1
		C101.4,19.8,101.5,17.7,101.3,15.7z M98.7,21.2c-1.1,4.6-3.6,8.8-7.2,12L72.9,49.8L54.6,33.2c-3.6-3.2-6.1-7.4-7.2-12
		c-0.5-1.7-0.6-3.4-0.5-5.1L47,16c0.7-8,6.3-13.8,13.2-13.8c5.2,0.1,9.9,3.3,11.8,8.2l1,2.4l1-2.4c2-4.9,6.8-8.2,12.1-8.2
		c6.9,0,12.5,5.8,13.2,13.9C99.4,17.8,99.2,19.5,98.7,21.2z"/>
	
		<linearGradient id="SVGID_4_" gradientUnits="userSpaceOnUse" x1="51.24" y1="146.6456" x2="63.24" y2="146.6456" gradientTransform="matrix(1 0 0 -1 0 159.2756)">
		<stop  offset="9.000000e-02" style="stop-color:#8BC53F"/>
		<stop  offset="0.94" style="stop-color:#006837"/>
	</linearGradient>
	<path class="st6" d="M62.2,6.6c-6,0-10.9,4.9-10.9,10.9c0,0.6,0.5,1.1,1.1,1.1s1.1-0.5,1.1-1.1c0-4.8,3.9-8.7,8.7-8.7
		c0.6,0,1.1-0.5,1.1-1.1S62.8,6.6,62.2,6.6z"/>
	<path class="st2" d="M49.3,99.3L49.3,99.3c-3-1.5-4.5-3.5-4.5-6.1c0-1.7,0.7-3.3,2-4.4c1.5-1.2,3.4-1.8,5.3-1.7
		c1.8-0.1,3.5,0.5,4.9,1.6c1.2,1,1.9,2.6,1.9,4.2c0,2.8-1.5,4.9-4.6,6.4v0.1c3.6,1.3,5.5,3.6,5.5,6.7c0.1,1.9-0.8,3.7-2.3,4.9
		c-1.8,1.3-4,2-6.2,1.8c-1.9,0.1-3.8-0.6-5.3-1.8c-1.3-1.2-2.1-2.9-2-4.7C44,103.1,45.8,100.8,49.3,99.3z M51.6,100.7
		c-3.2,1.3-4.8,3.1-4.8,5.5c0,1.2,0.5,2.3,1.4,3c1,0.8,2.3,1.3,3.6,1.2c1.3,0,2.5-0.4,3.5-1.2c0.9-0.7,1.4-1.8,1.4-3
		C56.8,103.7,55,101.9,51.6,100.7z M55.9,93.2c0.1-1-0.3-2-1.1-2.7c-0.8-0.7-1.9-1.1-2.9-1c-1.1,0-2.1,0.3-2.9,1
		c-0.8,0.6-1.2,1.6-1.2,2.6c0,2.2,1.3,3.8,4,4.9C54.5,96.9,55.9,95.3,55.9,93.2z"/>
	<path class="st2" d="M70.7,112.8c-2.3,0-4.5-1.2-5.7-3.2c-1.4-2.1-2.1-5.2-2.1-9.2c0-4.4,0.7-7.7,2.2-10c1.3-2.2,3.7-3.5,6.2-3.4
		c5.2,0,7.8,4.3,7.8,12.8c0,4.2-0.7,7.4-2.2,9.7C75.6,111.6,73.2,112.9,70.7,112.8z M71.1,89.5c-3.6,0-5.3,3.6-5.3,10.8
		c0,6.7,1.7,10.1,5.2,10.1s5.2-3.4,5.2-10.3C76.2,93,74.5,89.5,71.1,89.5z"/>
	<path class="st2" d="M87.6,100c-1.5,0.1-3.1-0.5-4.1-1.7c-1.1-1.3-1.6-2.9-1.5-4.5c-0.1-1.8,0.5-3.5,1.6-4.9
		c1.1-1.2,2.7-1.9,4.4-1.8c1.5-0.1,3,0.5,4.1,1.6c1.1,1.3,1.6,3,1.5,4.6c0.1,1.7-0.5,3.5-1.6,4.8C90.7,99.4,89.2,100,87.6,100z
		 M87.8,89c-1,0-2,0.4-2.6,1.2c-0.7,1-1.1,2.2-1,3.4c-0.1,1.2,0.3,2.3,0.9,3.3c0.6,0.8,1.6,1.2,2.6,1.2c1,0,2-0.4,2.6-1.2
		c0.7-1,1-2.2,0.9-3.4c0.1-1.2-0.2-2.3-0.9-3.3C89.7,89.4,88.8,89,87.8,89z M104.2,87.5l-16,25.1h-2.5l16-25.1H104.2z M102.4,112.8
		c-1.5,0.1-3-0.6-4.1-1.7c-1.1-1.3-1.6-2.9-1.5-4.5c-0.1-1.8,0.5-3.5,1.6-4.9c1.1-1.2,2.7-1.9,4.3-1.8c1.6-0.1,3.1,0.5,4.1,1.7
		c2,2.8,2,6.7-0.2,9.4C105.6,112.2,104,112.8,102.4,112.8L102.4,112.8z M102.6,101.8c-1-0.1-2,0.4-2.6,1.2c-0.7,1-1,2.2-0.9,3.4
		c-0.1,1.2,0.3,2.3,0.9,3.2c0.6,0.8,1.6,1.2,2.6,1.2c1,0,2-0.4,2.6-1.2c0.7-1,1-2.2,0.9-3.4c0.1-1.2-0.2-2.3-0.9-3.3
		C104.5,102.2,103.6,101.8,102.6,101.8L102.6,101.8z"/>
</g>
</svg>
