<svg xmlns="http://www.w3.org/2000/svg" viewBox="0 0 34.17 40"><defs><style>.cls-1{fill:#fff;}</style></defs><title>iconFinanzas</title><g id="Capa_2" data-name="Capa 2"><g id="MEDIOAMBIENTE"><path class="cls-1" d="M34,35.66c-.45-1.1-.91-2.2-1.4-3.28a1.55,1.55,0,0,0-2.06-1c-1.34.31-2.65.71-4,1a15,15,0,0,1-7.73-.22c-3.19-1-4.9-3.32-5.94-6.31h8.67a1.23,1.23,0,0,0,1.23-1.23V21.88a1.23,1.23,0,0,0-1.23-1.23H12c0-.77,0-1.5,0-2.23h9.5a1.23,1.23,0,0,0,1.23-1.23V14.46a1.23,1.23,0,0,0-1.23-1.23H13.23s0-.07,0-.08a8.86,8.86,0,0,1,4.83-5,14.58,14.58,0,0,1,8.47-.48c1.35.28,2.68.69,4,1a1.53,1.53,0,0,0,2-1c.49-1.06.94-2.14,1.39-3.23a1.64,1.64,0,0,0-.79-2.31,5.17,5.17,0,0,0-.75-.36A23.43,23.43,0,0,0,20,.28a17.67,17.67,0,0,0-8.22,3.39,18,18,0,0,0-6.17,9.14l-.14.42H1.23A1.23,1.23,0,0,0,0,14.46v2.73a1.23,1.23,0,0,0,1.23,1.23H4.59v2.23H1.23A1.23,1.23,0,0,0,0,21.88v2.73a1.23,1.23,0,0,0,1.23,1.23H5.28c.31,1,.57,2,1,3A16.82,16.82,0,0,0,16.9,39a22.07,22.07,0,0,0,12.9.15,20.64,20.64,0,0,0,3.3-1.19A1.57,1.57,0,0,0,34,35.66Z"/></g></g></svg>