<svg xmlns="http://www.w3.org/2000/svg" viewBox="0 0 232.53 43"><defs><style>.cls-1{fill:#ec1c24;stroke:#fff;stroke-miterlimit:10;}.cls-2{fill:#fff;}.cls-3{opacity:0.83;}</style></defs><title>rackRED</title><g id="Capa_2" data-name="Capa 2"><g id="Máquinas-RACKS"><path class="cls-1" d="M.5.5v42H199V.5Zm17.75,36A14.25,14.25,0,1,1,32.5,22.25,14.26,14.26,0,0,1,18.25,36.5Z"/><path class="cls-2" d="M198.76,17.73V.5H91.6V17.73h5.25v7.54H91.6V42.5H198.76V25.27H192.7V17.73Zm-88,17.71h-7.45V28.15h7.45Zm0-10.4h-7.45V17.76h7.45Zm0-10.2h-7.45V7.56h7.45Zm11,20.6h-7.45V28.15h7.45Zm0-10.4h-7.45V17.76h7.45Zm0-10.2h-7.45V7.56h7.45Zm10.84,20.6h-7.44V28.15h7.44Zm0-10.4h-7.44V17.76h7.44Zm0-10.2h-7.44V7.56h7.44Zm10.74,20.6h-7.45V28.15h7.45Zm0-10.4h-7.45V17.76h7.45Zm0-10.2h-7.45V7.56h7.45Zm11,20.6h-7.45V28.15h7.45Zm0-10.4h-7.45V17.76h7.45Zm0-10.2h-7.45V7.56h7.45Zm10.85,20.6h-7.45V28.15h7.45Zm0-10.4h-7.45V17.76h7.45Zm0-10.2h-7.45V7.56h7.45Zm16.66,20.39h-9.61V30.79h9.61ZM177,22.76a7.68,7.68,0,1,1,7.67-7.67A7.68,7.68,0,0,1,177,22.76ZM181.83,15a4.81,4.81,0,1,1-4.8-4.81A4.81,4.81,0,0,1,181.83,15Z"/><path class="cls-2" d="M40.63,9.64c-1.2,0-2.17,1.73-2.17,3.86V32.79c0,2.13,1,3.85,2.17,3.85s2.17-1.72,2.17-3.85V13.5C42.8,11.37,41.83,9.64,40.63,9.64Z"/><path class="cls-2" d="M50.17,36.64c1.2,0,2.17-1.72,2.17-3.85V13.5c0-2.13-1-3.86-2.17-3.86S48,11.37,48,13.5V32.79C48,34.92,49,36.64,50.17,36.64Z"/><path class="cls-2" d="M59.71,36.64c1.2,0,2.17-1.72,2.17-3.85V13.5c0-2.13-1-3.86-2.17-3.86s-2.17,1.73-2.17,3.86V32.79C57.54,34.92,58.51,36.64,59.71,36.64Z"/><path class="cls-2" d="M69.25,36.64c1.2,0,2.17-1.72,2.17-3.85V13.5c0-2.13-1-3.86-2.17-3.86s-2.17,1.73-2.17,3.86V32.79C67.08,34.92,68.05,36.64,69.25,36.64Z"/><path class="cls-2" d="M78.79,36.64c1.2,0,2.17-1.72,2.17-3.85V13.5c0-2.13-1-3.86-2.17-3.86s-2.17,1.73-2.17,3.86V32.79C76.62,34.92,77.59,36.64,78.79,36.64Z"/><path class="cls-2" d="M23.44,29.16a4.5,4.5,0,0,1-4.63,4.35,4.51,4.51,0,0,1-4.64-4.35,4.28,4.28,0,0,1,2.29-3.75V12.32a2.35,2.35,0,0,1,4.69,0V25.41A4.28,4.28,0,0,1,23.44,29.16Zm-.91,0a3.47,3.47,0,0,0-2-3.12l-.25-.11V12.32a1.43,1.43,0,0,0-2.86,0V25.93l-.25.11a3.48,3.48,0,0,0-2,3.12,3.61,3.61,0,0,0,3.72,3.49A3.61,3.61,0,0,0,22.53,29.16Zm-.77,0a3,3,0,0,1-5.91,0,2.8,2.8,0,0,1,2.2-2.68l.17,0V18.82H19.4v7.61l.17.05A2.8,2.8,0,0,1,21.76,29.16ZM19,27.31a.58.58,0,0,0-.7-.42,2.33,2.33,0,0,0-1.91,2.24.6.6,0,0,0,1.19,0,1.21,1.21,0,0,1,1-1.16A.55.55,0,0,0,19,27.31Z"/><rect class="cls-3" x="99.03" y="2.5" width="133.5" height="38"/><path class="cls-2" d="M122.14,16.74a7.21,7.21,0,0,0,.62,1.49l-.75,1a.78.78,0,0,0,0,1l1.31,1.31a.78.78,0,0,0,1,.06l1-.75a6.61,6.61,0,0,0,1.55.65l.14,1.22a.78.78,0,0,0,.78.7h1.84a.79.79,0,0,0,.78-.7l.13-1.17a7.07,7.07,0,0,0,1.66-.68l.92.73a.78.78,0,0,0,1-.06l1.3-1.3a.78.78,0,0,0,.06-1l-.71-.91a6.47,6.47,0,0,0,.68-1.63l1.1-.13a.77.77,0,0,0,.69-.77V13.9a.77.77,0,0,0-.69-.77L135.55,13a6.49,6.49,0,0,0-.66-1.61l.67-.85a.78.78,0,0,0-.06-1l-1.3-1.3a.79.79,0,0,0-1-.06l-.82.65a6.87,6.87,0,0,0-1.7-.71L130.52,7a.79.79,0,0,0-.78-.69H127.9a.79.79,0,0,0-.78.69L127,8.08a6.52,6.52,0,0,0-1.74.74l-.85-.68a.79.79,0,0,0-1,.06l-1.31,1.31a.78.78,0,0,0-.06,1l.72.9a6.94,6.94,0,0,0-.65,1.63l-1.13.13a.79.79,0,0,0-.7.78v1.84a.78.78,0,0,0,.7.78Zm6-4.91a3.05,3.05,0,1,1-2.27,2.27A3,3,0,0,1,128.12,11.83Z"/><path class="cls-2" d="M147.07,17.2l-1-.83a.78.78,0,0,0-1,0l-.54.5a5.56,5.56,0,0,0-1.43-.46L143,15.7a.79.79,0,0,0-.83-.62l-1.27.11a.78.78,0,0,0-.71.74l0,.76a5.44,5.44,0,0,0-1.37.72l-.64-.43a.77.77,0,0,0-1,.15l-.82,1a.76.76,0,0,0,0,1l.56.6a5.51,5.51,0,0,0-.42,1.38l-.8.16a.78.78,0,0,0-.62.82l.11,1.27a.77.77,0,0,0,.75.71l.86,0a5.7,5.7,0,0,0,.62,1.17l-.49.74a.77.77,0,0,0,.15,1l1,.82a.77.77,0,0,0,1,0l.64-.6a5.36,5.36,0,0,0,1.3.43l.18.87a.78.78,0,0,0,.82.62l1.27-.11a.77.77,0,0,0,.71-.75l0-.85a5.56,5.56,0,0,0,1.31-.66l.7.46a.77.77,0,0,0,1-.14l.82-1a.76.76,0,0,0,0-1l-.57-.6a5.58,5.58,0,0,0,.45-1.38l.77-.16a.77.77,0,0,0,.62-.82L149,20.86a.77.77,0,0,0-.74-.71l-.78,0a5.89,5.89,0,0,0-.64-1.28l.42-.63A.77.77,0,0,0,147.07,17.2Zm-4.79,7.34a2.5,2.5,0,1,1,2.28-2.7A2.5,2.5,0,0,1,142.28,24.54Z"/><path class="cls-2" d="M126.58,28a.77.77,0,0,0-.69.76v.78a.76.76,0,0,0,.67.78l.58.07a4,4,0,0,0,.41,1l-.38.46a.79.79,0,0,0,0,1l.55.56a.78.78,0,0,0,1,.07l.46-.36a4.65,4.65,0,0,0,1,.45l.06.59a.79.79,0,0,0,.76.7h.79a.76.76,0,0,0,.77-.67l.07-.56a5.08,5.08,0,0,0,1.12-.43l.43.35a.79.79,0,0,0,1,0l.55-.55a.77.77,0,0,0,.08-1l-.33-.43a4.71,4.71,0,0,0,.47-1.08l.51,0a.77.77,0,0,0,.69-.76v-.78a.77.77,0,0,0-.67-.78l-.5-.06a4.67,4.67,0,0,0-.43-1.09l.32-.38a.79.79,0,0,0-.05-1l-.55-.55a.76.76,0,0,0-1-.08l-.38.29a4.65,4.65,0,0,0-1.12-.49l0-.48a.79.79,0,0,0-.76-.7h-.79a.76.76,0,0,0-.77.67l-.06.48a4.8,4.8,0,0,0-1.17.48l-.39-.32a.75.75,0,0,0-1,.05l-.57.55a.78.78,0,0,0-.07,1l.33.42a4.62,4.62,0,0,0-.44,1.08Zm4.48-.81a2,2,0,0,1,2.5,2.53,2,2,0,0,1-1.41,1.39,2,2,0,0,1-2.5-2.53A2,2,0,0,1,131.06,27.15Z"/></g></g></svg>